<?xml version="1.0" standalone="no"?>
<!DOCTYPE svg PUBLIC "-//W3C//DTD SVG 1.1//EN" "http://www.w3.org/Graphics/SVG/1.1/DTD/svg11.dtd" >
<svg>
<metadata>
Created by FontForge 20110222 at Tue Mar 31 14:21:00 2015
 By deploy user
[c] Copyright 1999-2003, The Font Bureau, Inc. Designed by Cyrus Highsmith. All Rights Reserved.
</metadata>
<defs>
<font id="Prensa-Regular" horiz-adv-x="918" >
  <font-face 
    font-family="Prensa Regular"
    font-weight="400"
    font-stretch="normal"
    units-per-em="1000"
    panose-1="2 0 6 3 7 0 0 2 0 4"
    ascent="780"
    descent="-220"
    x-height="469"
    cap-height="684"
    bbox="-105 -248 1409 930"
    underline-thickness="20"
    underline-position="-113"
    unicode-range="U+0020-FB02"
  />
<missing-glyph horiz-adv-x="500" 
 />
    <glyph glyph-name="fi" unicode="fi" horiz-adv-x="633" 
d="M123 516q0 83 25 129.5t75 66.5q56 28 147 28q32 0 69.5 -7t49.5 -13q-8 -90 -59 -90q-35 0 -83 22t-79 51q-51 -42 -51 -140v-94h313v-429h84v-40h-243v40h66v369l-69 10h-152v-379h66v-40h-250v40h91v379h-91v50h91v47z" />
    <glyph glyph-name="fl" unicode="fl" horiz-adv-x="633" 
d="M32 0v40h91v379h-91v50h91v47q0 61 16.5 107t43.5 70.5t55 35.5t56 11q67 0 151 -22l90 22l-5 -274v-426h84v-40h-243v40h66v598l-173 58q-47 -50 -47 -133v-94h92v-50h-93v-379h66v-40h-250z" />
    <glyph glyph-name="f_f_l" unicode="ffl" horiz-adv-x="946" 
d="M32 0v40h91v379h-91v50h91v25q0 49 11 87.5t29 62.5t42.5 39t49.5 21t53 6q59 0 106 -28q-3 -28 -19 -49t-33 -21q-24 0 -60 18t-64 43q-22 -51 -22 -140v-64h220v47q0 61 16.5 107t43.5 70.5t55 35.5t56 11q67 0 151 -22l90 22l-5 -274v-426h84v-40h-243v40h66v598
l-173 58q-47 -50 -47 -133v-94h92v-50h-93v-379h65v-40h-224v40h66v379h-221v-379h66v-40h-249z" />
    <glyph glyph-name="f_f_i" unicode="ffi" horiz-adv-x="946" 
d="M32 0v40h91v379h-91v50h91v25q0 49 11 87.5t29 62.5t42.5 39t49.5 21t53 6q60 0 107 -27q-4 -30 -19 -50.5t-32 -20.5q-25 0 -61 17.5t-65 43.5q-22 -51 -22 -140v-64h220v47q0 65 17 111t46 69.5t60.5 33.5t67.5 10q71 0 119 -24q-4 -39 -21 -59t-39 -20q-26 0 -61 18.5
t-65 47.5q-30 -41 -30 -140v-94h313v-429h84v-40h-243v40h66v369l-69 10h-152v-379h65v-40h-233v40h75v379h-221v-379h66v-40h-249z" />
    <glyph glyph-name="f_f" unicode="ff" horiz-adv-x="678" 
d="M123 494q0 49 11 87.5t29 62.5t42.5 39t49.5 21t53 6q59 0 106 -28q-3 -28 -20 -49t-33 -21q-23 0 -59 18t-64 43q-22 -51 -22 -140v-64h220v55q0 114 49.5 165t124.5 51q64 0 118 -28q-4 -32 -21 -53t-39 -21q-38 0 -119 64q-19 -44 -19 -139v-94h125v-50h-126v-379h117
v-40h-276v40h66v379h-221v-379h66v-40h-249v40h91v379h-91v50h91v25z" />
    <glyph glyph-name="f_j" unicode="fj" horiz-adv-x="602" 
d="M436 409l-75 10h-146v-379h66v-40h-249v40h91v379h-91v50h91v47q0 84 24.5 130t74.5 66q58 28 147 28q32 0 69.5 -7t49.5 -13q-9 -90 -59 -90q-35 0 -83 22t-79 51q-51 -42 -51 -140v-94h313v-430q0 -61 -17.5 -106.5t-52.5 -74t-70.5 -45.5t-87.5 -32q-14 15 -17 33.5
t5.5 35t32.5 27.5t59 11q23 0 45 -18q10 22 10 128v411z" />
    <glyph glyph-name=".notdef" horiz-adv-x="500" 
 />
    <glyph glyph-name=".null" horiz-adv-x="0" 
 />
    <glyph glyph-name="nonmarkingreturn" horiz-adv-x="333" 
 />
    <glyph glyph-name="space" unicode=" " horiz-adv-x="263" 
 />
    <glyph glyph-name="space" unicode="&#xa0;" horiz-adv-x="263" 
 />
    <glyph glyph-name="exclam" unicode="!" horiz-adv-x="323" 
d="M145 215l-27 223l-24 245h135l-25 -245l-26 -223h-33zM162 -4q-27 0 -47 20.5t-20 48.5t20 48.5t47 20.5q26 0 46 -20.5t20 -48.5t-20 -48.5t-46 -20.5z" />
    <glyph glyph-name="quotedbl" unicode="&#x22;" horiz-adv-x="551" 
d="M356 421l-47 263h128l-47 -263h-34zM160 421l-46 263h127l-47 -263h-34z" />
    <glyph glyph-name="numbersign" unicode="#" horiz-adv-x="656" 
d="M385 -109l-58 9l47 243l-65 10l-66 9l-43 -270l-58 9l51 266l-126 16l8 55l127 -20l4 18l17 108l-130 17l7 55l131 -21l40 246l58 -10l-46 -243l57 -10l72 -9l44 270l58 -9l-50 -266l126 -15l-8 -55l-127 18l-18 -93l-5 -33l133 -15l-8 -55l-133 19zM382 192l7 36l15 92
l-70 11l-60 8l-20 -110l-3 -18l64 -11z" />
    <glyph glyph-name="dollar" unicode="$" horiz-adv-x="556" 
d="M254 -124l3 120q-65 2 -114.5 32t-72.5 76q6 20 23 34.5t36 14.5q25 0 44 -28.5t27 -88.5q31 -9 57 -10l2 180q-32 8 -51 13.5t-45.5 17.5t-41 26t-25 37.5t-10.5 53.5q0 58 46 97.5t124 48.5v30l-2 58v30h54l-2 -116q61 -2 106 -26.5t63 -57.5q-5 -19 -22 -34t-37 -15
q-48 0 -75 98l-36 4l-3 -181q95 -25 127 -46q51 -34 51 -95q0 -68 -48.5 -106.5t-125.5 -44.5l2 -122h-54zM259 302l-2 168q-42 -5 -66.5 -29t-24.5 -53q0 -59 93 -86zM306 29q39 6 66.5 30t27.5 57t-25 50.5t-72 30.5z" />
    <glyph glyph-name="percent" unicode="%" horiz-adv-x="1018" 
d="M256 264q-85 0 -142 54t-57 140q0 85 65 141.5t152 56.5q85 0 139.5 -54t54.5 -140t-63 -142t-149 -56zM346 -12l-41 23l185 311l186 334l41 -23l-196 -334zM749 -12q-86 0 -143 54t-57 140q0 85 65 141.5t153 56.5q85 0 139.5 -54t54.5 -140t-63 -142t-149 -56zM265 294
q48 0 76 46t28 118t-30 120t-79 48q-48 0 -76 -46t-28 -118t30 -120t79 -48zM757 18q48 0 76 46t28 118t-29.5 120t-78.5 48q-48 0 -76 -46t-28 -118t29.5 -120t78.5 -48z" />
    <glyph glyph-name="ampersand" unicode="&#x26;" horiz-adv-x="754" 
d="M552 -16q-47 39 -115 109q-49 -106 -170 -106q-102 0 -170.5 64.5t-68.5 140.5q0 61 40.5 109t122.5 74q-38 58 -39 60q-30 50 -30 103q0 67 56 109.5t127 42.5q64 0 104 -37.5t40 -90.5q0 -134 -151 -176q63 -80 162 -184l41 166h210v-41h-144l-83 -151q81 -82 125 -118
h124v-37zM279 411q44 21 68.5 55.5t24.5 75.5q0 50 -23.5 82t-58.5 32q-37 0 -61 -22t-24 -59q0 -48 33 -103q12 -22 41 -61zM303 51q74 0 111 67q-125 127 -203 232q-47 -27 -69.5 -55.5t-22.5 -69.5q0 -62 56 -118t128 -56z" />
    <glyph glyph-name="quotesingle" unicode="'" horiz-adv-x="361" 
d="M162 421l-48 263h133l-51 -263h-34z" />
    <glyph glyph-name="parenleft" unicode="(" horiz-adv-x="339" 
d="M273 -89q-100 83 -165.5 204t-65.5 234t63 223t168 193l22 -22q-72 -69 -111 -169.5t-39 -218.5q0 -242 150 -422z" />
    <glyph glyph-name="parenright" unicode=")" horiz-adv-x="339" 
d="M66 -88l-22 22q72 69 111 169.5t39 218.5q0 242 -150 422l22 22q100 -83 165.5 -204t65.5 -234t-63 -223t-168 -193z" />
    <glyph glyph-name="asterisk" unicode="*" horiz-adv-x="539" 
d="M243 221l18 229l-190 -130l-39 90l224 53l-182 141l71 66l120 -195l78 216l83 -50l-148 -174l230 -7l-22 -96l-213 87l67 -221z" />
    <glyph glyph-name="plus" unicode="+" horiz-adv-x="592" 
d="M332 70l-72 5l4 162h-159l5 63h154l-4 165l72 -5l-4 -160h159l-5 -63h-154z" />
    <glyph glyph-name="comma" unicode="," horiz-adv-x="281" 
d="M45 -150l-18 27l127 109q-42 14 -67.5 39.5t-25.5 51.5q0 30 20.5 47.5t48.5 17.5q36 0 59.5 -33t23.5 -78q0 -30 -17.5 -60t-46 -53t-53.5 -39t-51 -29z" />
    <glyph glyph-name="hyphen" unicode="-" horiz-adv-x="501" 
d="M83 258l4 68h331l-4 -68h-331z" />
    <glyph glyph-name="hyphen" unicode="&#xad;" horiz-adv-x="501" 
d="M83 258l4 68h331l-4 -68h-331z" />
    <glyph glyph-name="period" unicode="." horiz-adv-x="281" 
d="M140 -4q-28 0 -48.5 22t-20.5 51q0 30 20.5 52t48.5 22t49 -22t21 -52q0 -29 -21 -51t-49 -22z" />
    <glyph glyph-name="slash" unicode="/" horiz-adv-x="466" 
d="M34 -65l-48 30l213 356l229 408l48 -30l-240 -404z" />
    <glyph glyph-name="zero" unicode="0" horiz-adv-x="646" 
d="M311 -13q-109 0 -178.5 71.5t-69.5 185.5q0 112 81 186.5t191 74.5q109 0 178 -71.5t69 -185.5q0 -112 -80 -186.5t-191 -74.5zM326 22q67 0 106 64t39 160q0 94 -42 159.5t-109 65.5q-68 0 -106.5 -62.5t-38.5 -158.5q0 -95 41.5 -161.5t109.5 -66.5z" />
    <glyph glyph-name="one" unicode="1" horiz-adv-x="430" 
d="M55 0v40h133v378h-133v50l234 32v-460h93v-40h-327z" />
    <glyph glyph-name="two" unicode="2" horiz-adv-x="527" 
d="M44 0v33q143 96 204 166.5t61 127.5q0 47 -29 75.5t-83 27.5q-58 -1 -140 -38l-13 21q39 37 96 62.5t114 26.5q74 2 121 -39t47 -115q0 -68 -65.5 -132t-185.5 -140l1 -9l240 9l16 87h44v-163h-428z" />
    <glyph glyph-name="three" unicode="3" horiz-adv-x="503" 
d="M45 -125q-9 28 4.5 46.5t45.5 18.5q72 0 141 -47q56 24 87 73t30 96t-48 84t-120 57l-5 24q44 21 71.5 54t27.5 65q0 38 -26 62.5t-67 24.5q-54 0 -130 -35l-14 24q35 34 88.5 57.5t110.5 23.5q62 0 104.5 -31.5t42.5 -80.5q0 -34 -28 -69.5t-74 -63.5q67 -16 115 -61.5
t48 -103.5q0 -97 -84.5 -165.5t-201.5 -68.5q-59 0 -118 16z" />
    <glyph glyph-name="four" unicode="4" horiz-adv-x="610" 
d="M366 -141l3 202h-324v44l375 408l44 -6l-5 -376h107v-70h-106l4 -202h-98zM135 130l235 -3l-6 250z" />
    <glyph glyph-name="five" unicode="5" horiz-adv-x="515" 
d="M62 -125q-8 29 5.5 47t47.5 18q69 0 142 -47q49 24 76.5 71t26.5 94q-1 37 -23 63t-84 51.5t-173 48.5l43 271h254l11 61h47v-138h-269l-21 -93q152 -32 231 -93t79 -141q0 -97 -81 -163t-201 -66q-49 0 -111 16z" />
    <glyph glyph-name="six" unicode="6" horiz-adv-x="607" 
d="M204 399q83 33 142 33q56 0 96.5 -20.5t62 -54t31 -70t9.5 -75.5q0 -40 -18 -81.5t-48 -71.5q-74 -72 -175 -72q-100 0 -168 69.5t-68 181.5q0 86 37 170t92 145t104 101.5t88 61.5l20 -16q-156 -167 -205 -301zM195 370q-22 -75 -19 -142q4 -100 45 -153t106 -53
q62 0 89.5 46t27.5 120q0 80 -46.5 134.5t-151.5 54.5q-16 0 -51 -7z" />
    <glyph glyph-name="seven" unicode="7" horiz-adv-x="545" 
d="M252 -152l-104 47l285 530l-302 -5l-10 -91h-60v163h442v-37z" />
    <glyph glyph-name="eight" unicode="8" horiz-adv-x="572" 
d="M205 344q-112 59 -112 165q0 75 62 127.5t152 52.5q81 0 133 -47.5t52 -113.5q0 -98 -124 -157q76 -44 108.5 -84.5t32.5 -99.5q0 -79 -63.5 -139.5t-170.5 -60.5q-91 0 -151 51.5t-60 124.5q0 114 141 181zM337 385q76 80 76 144q0 54 -31 89.5t-92 35.5q-46 0 -75 -31
t-29 -76q0 -95 151 -162zM237 329q-46 -39 -69.5 -83.5t-23.5 -74.5q0 -67 39 -108t108 -41q50 0 86.5 36.5t36.5 89.5q0 99 -177 181z" />
    <glyph glyph-name="nine" unicode="9" horiz-adv-x="607" 
d="M402 92q-81 -32 -142 -32q-55 0 -95.5 20.5t-61.5 54.5t-31 70t-10 75t18.5 81.5t47.5 71.5q72 72 175 72q101 0 168.5 -68.5t67.5 -178.5q0 -70 -22.5 -134t-54.5 -108.5t-74.5 -84t-74 -60t-61.5 -36.5l-20 17q40 43 64 70.5t56 75.5t50 94zM413 122q21 69 18 141
q-4 101 -45 154.5t-106 53.5q-62 0 -89.5 -46t-27.5 -119q0 -83 47.5 -137t153.5 -54q2 0 49 7z" />
    <glyph glyph-name="colon" unicode=":" horiz-adv-x="281" 
d="M140 324q-27 0 -47 21.5t-20 50.5t20 51t47 22q28 0 48 -22t20 -51t-20 -50.5t-48 -21.5zM140 -4q-27 0 -47 21.5t-20 50.5t20 50.5t47 21.5q28 0 48 -21.5t20 -50.5t-20 -50.5t-48 -21.5z" />
    <glyph glyph-name="semicolon" unicode=";" horiz-adv-x="281" 
d="M140 324q-27 0 -47 21.5t-20 50.5t20 51t47 22q28 0 48 -22t20 -51t-20 -50.5t-48 -21.5zM52 -139l-18 25l121 105q-40 13 -64 38t-24 50q0 29 19.5 45.5t46.5 16.5q35 0 57 -32t22 -74q0 -29 -16.5 -57.5t-44 -51t-51 -37.5t-48.5 -28z" />
    <glyph glyph-name="less" unicode="&#x3c;" horiz-adv-x="476" 
d="M320 36l-213 185v42l213 185l34 -34l-168 -172l168 -172z" />
    <glyph glyph-name="equal" unicode="=" horiz-adv-x="540" 
d="M103 297l4 56h332l-4 -56h-332zM103 148l4 56h332l-4 -56h-332z" />
    <glyph glyph-name="greater" unicode="&#x3e;" horiz-adv-x="476" 
d="M156 35l-34 34l168 172l-168 172l34 33l213 -184v-42z" />
    <glyph glyph-name="question" unicode="?" horiz-adv-x="442" 
d="M181 199l-50 140q170 92 170 160q0 47 -28 92t-67 62q-58 -66 -98 -66q-46 0 -57 68q47 29 107 29q92 0 158.5 -62t66.5 -163q0 -56 -45 -97.5t-131 -58.5l8 -96zM187 -4q-26 0 -45.5 20t-19.5 48t19.5 48t45.5 20t46 -20.5t20 -47.5t-20 -47.5t-46 -20.5z" />
    <glyph glyph-name="at" unicode="@" horiz-adv-x="1022" 
d="M690 -200q-172 -23 -294.5 -2.5t-200.5 81.5t-114.5 142.5t-36.5 180.5q0 90 38 178t104.5 159t168 114.5t218.5 43.5q97 0 176 -28t129 -75t76.5 -107t26.5 -127q0 -69 -28 -129t-71 -100t-98 -70.5t-106 -46t-99 -21.5l-4 115q-65 -113 -151 -113q-63 0 -103 65.5
t-23 162.5q22 118 91.5 187.5t151.5 69.5q50 0 84 -37l30 66l70 -21l-75 -446q111 32 180.5 117.5t69.5 219.5q0 126 -87 207t-266 81q-125 0 -222 -67t-145.5 -169.5t-48.5 -219.5q0 -94 30 -168.5t93.5 -130t173.5 -78.5t258 -6zM469 58q31 0 98 72l52 292q-35 7 -66 7
q-59 0 -98 -48t-54 -136q-13 -76 7.5 -131.5t60.5 -55.5z" />
    <glyph glyph-name="A" unicode="A" horiz-adv-x="750" 
d="M8 0v42h57l286 652h39l160 -378l125 -274h67v-42h-289v42h108l-72 187h-287l-76 -187h104v-42h-222zM217 271h253l-128 294z" />
    <glyph glyph-name="B" unicode="B" horiz-adv-x="642" 
d="M33 0v42h85l5 303l-5 293h-85v46h263q127 0 188 -40t61 -124q0 -64 -40 -107t-113 -57v-4q189 -16 189 -160q0 -92 -74 -142t-202 -50h-272zM217 366h67q155 0 155 129q0 71 -41.5 109.5t-110.5 38.5h-66zM221 40h94q71 0 115.5 33.5t44.5 99.5q0 72 -46 114t-125 42h-87
z" />
    <glyph glyph-name="C" unicode="C" horiz-adv-x="715" 
d="M383 -12q-158 0 -249.5 95.5t-91.5 258.5q0 146 100.5 248t239.5 102q118 0 204 -74v71h59v-228h-49l-42 134q-74 47 -168 47q-109 0 -171.5 -75.5t-62.5 -208.5q0 -130 71.5 -223.5t195.5 -93.5q44 0 103 21t106 55l21 -28q-50 -43 -121 -72t-145 -29z" />
    <glyph glyph-name="D" unicode="D" horiz-adv-x="771" 
d="M33 0v42h85l5 300l-5 296h-85v46h319q164 0 267 -83.5t103 -243.5q0 -153 -108 -255t-271 -102h-310zM223 40h130q120 0 189 82t69 215q0 135 -69.5 219.5t-193.5 84.5h-125l-5 -299z" />
    <glyph glyph-name="E" unicode="E" horiz-adv-x="589" 
d="M33 0v42h85l5 300l-5 296h-85v46h471v-169h-51l-23 117l-206 10l-7 -277l219 10v-61l-219 10l7 -285l230 10l23 130h51v-179h-495z" />
    <glyph glyph-name="F" unicode="F" horiz-adv-x="545" 
d="M33 0v42h85l5 300l-5 296h-85v46h461v-169h-50l-23 117l-197 10l-7 -287l202 10v-61l-202 10l7 -272h110v-42h-301z" />
    <glyph glyph-name="G" unicode="G" horiz-adv-x="772" 
d="M399 -8q-69 0 -131.5 22t-113.5 64t-81.5 113t-30.5 161q0 152 103.5 246t256.5 94q111 0 200 -73v70h59v-228h-48l-43 134q-74 46 -162 46q-114 0 -184.5 -76.5t-70.5 -202.5q0 -147 81 -235.5t183 -88.5q86 0 162 43l-17 155h-115v42h302v-42h-75v-171
q-54 -32 -132.5 -52.5t-142.5 -20.5z" />
    <glyph glyph-name="H" unicode="H" horiz-adv-x="816" 
d="M33 0v42h85l5 300l-5 296h-85v46h288v-46h-97l-5 -271h378l-5 271h-97v46h288v-46h-86l-4 -296l4 -300h86v-42h-288v42h97l5 279h-378l5 -279h97v-42h-288z" />
    <glyph glyph-name="I" unicode="I" horiz-adv-x="361" 
d="M33 0v42h95l4 300l-4 296h-95v46h295v-46h-95l-5 -296l5 -300h95v-42h-295z" />
    <glyph glyph-name="J" unicode="J" horiz-adv-x="345" 
d="M-58 -198q-25 59 4.5 96.5t118.5 37.5q24 0 46 -14q16 57 16 187l3 233l-4 296h-93v46h279v-46h-81l-5 -296q4 -124 5 -237q2 -223 -289 -303z" />
    <glyph glyph-name="K" unicode="K" horiz-adv-x="723" 
d="M217 333l311 305h-77v46h222v-46h-71l-239 -225l281 -358h75v-38l-147 -33l-272 368l-82 -77l4 -233h87v-42h-276v42h85l5 300l-5 296h-85v46h279v-46h-90l-5 -296v-9z" />
    <glyph glyph-name="L" unicode="L" horiz-adv-x="564" 
d="M33 0v42h85l5 299l-5 297h-85v46h295v-46h-104l-5 -296l5 -303l206 10l32 167h51v-216h-480z" />
    <glyph glyph-name="M" unicode="M" horiz-adv-x="983" 
d="M445 -5l-278 622l10 -575h85v-42h-229v42h79l11 596h-90v46h211l242 -557l248 557h216v-46h-89l-3 -297l7 -299h85v-42h-278v42h90l4 297l-6 270l-285 -614h-30z" />
    <glyph glyph-name="N" unicode="N" horiz-adv-x="786" 
d="M645 -5l-480 554l10 -507h93v-42h-235v42h79l7 560l-29 36h-68v46h161l440 -520l-8 474h-94v46h232v-46h-76l-10 -643h-22z" />
    <glyph glyph-name="O" unicode="O" horiz-adv-x="800" 
d="M390 -12q-150 0 -249 98.5t-99 255.5q0 145 109.5 249.5t258.5 104.5q150 0 249 -99t99 -256q0 -145 -111.5 -249t-256.5 -104zM404 32q108 0 175.5 84.5t67.5 219.5q0 130 -74.5 221.5t-176.5 91.5q-107 0 -175 -84t-68 -219q0 -129 75 -221.5t176 -92.5z" />
    <glyph glyph-name="P" unicode="P" horiz-adv-x="604" 
d="M33 0v42h85l5 300l-5 296h-85v46h263q136 0 198 -43.5t62 -141.5q0 -96 -76 -152.5t-198 -56.5h-65l5 -248h104v-42h-293zM216 330h74q157 0 157 149q0 80 -44 122t-117 42h-64z" />
    <glyph glyph-name="Q" unicode="Q" horiz-adv-x="800" 
d="M523 -166q-120 61 -192 160q-128 19 -208.5 113.5t-80.5 234.5q0 145 109.5 249.5t258.5 104.5q150 0 249 -99t99 -256q0 -126 -86.5 -221.5t-210.5 -119.5v-5q70 -64 176 -104q53 0 117 5v-38q-49 -9 -123 -17.5t-108 -6.5zM404 32q108 0 175.5 84.5t67.5 219.5
q0 130 -74.5 221.5t-176.5 91.5q-107 0 -175 -84t-68 -219q0 -129 75 -221.5t176 -92.5z" />
    <glyph glyph-name="R" unicode="R" horiz-adv-x="666" 
d="M523 -15l-69 122q-79 142 -141 206h-96l5 -271h84v-42h-273v42h85l5 300l-5 296h-85v46h266q252 0 252 -169q0 -58 -42 -106t-111 -71v-5q63 -55 138 -179l61 -99h65v-38zM217 349l122 5q40 11 71.5 45.5t31.5 94.5q0 68 -43 108.5t-116 40.5h-61z" />
    <glyph glyph-name="S" unicode="S" horiz-adv-x="600" 
d="M309 -7q-45 0 -84 12t-57 23.5t-42 30.5v-59h-56v215h43l36 -127q91 -47 159 -47q50 0 86 30t36 81q0 53 -35 86t-124 70q-51 21 -79 36t-55.5 37.5t-39 52.5t-11.5 72q0 77 59 131t142 54q85 0 157 -59v52h56v-199h-44l-35 119q-55 38 -132 38q-45 0 -76 -28t-31 -74
t32 -77.5t116 -65.5q52 -21 82.5 -37.5t59.5 -41t42 -56.5t13 -76q0 -89 -67.5 -141t-150.5 -52z" />
    <glyph glyph-name="T" unicode="T" horiz-adv-x="717" 
d="M202 0v42h104l5 300l-5 302l-176 -10l-28 -183h-51v233h615v-233h-51l-27 183l-176 10l-5 -302l5 -300h104v-42h-314z" />
    <glyph glyph-name="U" unicode="U" horiz-adv-x="804" 
d="M404 -8q-131 0 -210.5 75.5t-80.5 214.5l-4 356h-76v46h288v-46h-106l-6 -347q-1 -117 63 -177.5t162 -60.5q94 0 152.5 64t57.5 174l-7 347h-102v46h236v-46h-71l-5 -338q-2 -149 -82.5 -228.5t-208.5 -79.5z" />
    <glyph glyph-name="V" unicode="V" horiz-adv-x="752" 
d="M361 -10l-161 378l-123 270h-69v46h289v-46h-107l81 -205l137 -312l213 517h-107v46h230v-46h-60l-287 -648h-36z" />
    <glyph glyph-name="W" unicode="W" horiz-adv-x="1091" 
d="M328 -10l-138 375l-113 273h-69v46h279v-46h-97l89 -248l94 -246l183 550h32l120 -338l76 -212l172 494h-96v46h223v-46h-67l-244 -648h-33l-106 301l-82 218l-190 -519h-33z" />
    <glyph glyph-name="X" unicode="X" horiz-adv-x="717" 
d="M8 0v42h76l231 303l-210 293h-78v46h288v-46h-88l154 -234l170 234h-92v46h236v-46h-76l-211 -275l229 -321h72v-42h-287v42h94l-174 262l-188 -262h96v-42h-242z" />
    <glyph glyph-name="Y" unicode="Y" horiz-adv-x="703" 
d="M195 0v42h104l4 272l-238 324h-57v46h274v-46h-97l191 -281l200 281h-97v46h216v-46h-50l-246 -322l5 -274h104v-42h-313z" />
    <glyph glyph-name="Z" unicode="Z" horiz-adv-x="681" 
d="M38 0v34l455 607l-329 -12l-28 -159h-51v214h533v-35l-455 -610l392 13l26 152h50v-204h-593z" />
    <glyph glyph-name="bracketleft" unicode="[" horiz-adv-x="405" 
d="M372 -96l-274 10l17 428l-17 418l274 10v-58l-185 15l-3 -386l3 -395l185 15v-57z" />
    <glyph glyph-name="backslash" unicode="\" horiz-adv-x="473" 
d="M439 -65l-202 360l-240 404l48 30l229 -408l213 -356z" />
    <glyph glyph-name="bracketright" unicode="]" horiz-adv-x="405" 
d="M33 -96v57l185 -15l3 390l-3 391l-185 -15v58l274 -10l-17 -425l17 -421z" />
    <glyph glyph-name="asciicircum" unicode="^" horiz-adv-x="489" 
d="M108 508l-20 15l126 174h62l125 -174l-21 -15l-136 101z" />
    <glyph glyph-name="underscore" unicode="_" horiz-adv-x="498" 
d="M-22 -121v48h542v-48h-542z" />
    <glyph glyph-name="grave" unicode="`" horiz-adv-x="492" 
d="M332 537l-239 87l105 67l147 -134z" />
    <glyph glyph-name="a" unicode="a" horiz-adv-x="491" 
d="M40 102q0 77 54 111q60 39 215 41q0 109 -11 149.5t-48 49.5q-76 -100 -126 -100q-33 0 -50 60q37 25 97 44t115 19q116 0 116 -165v-259h70v-38l-130 -20l-20 64q-72 -63 -156 -63q-54 0 -90 30t-36 77zM133 121q0 -34 23.5 -53t63.5 -19q10 0 41 12t48 21v149
q-89 -18 -131 -41q-45 -24 -45 -69z" />
    <glyph glyph-name="b" unicode="b" horiz-adv-x="565" 
d="M267 -6q-81 0 -190 26v660h-77v50l174 13l-8 -325q86 58 172 58q78 0 131 -60.5t53 -167.5q0 -117 -85 -195q-66 -59 -170 -59zM251 33q85 0 129.5 49t44.5 144q0 89 -48.5 141.5t-118.5 52.5q-24 0 -89 -34v-336q36 -17 82 -17z" />
    <glyph glyph-name="c" unicode="c" horiz-adv-x="489" 
d="M268 -12q-99 0 -164.5 60.5t-65.5 171.5t80 189q76 73 179 73q98 0 149 -38q-3 -38 -17.5 -61t-37.5 -23q-26 0 -60 27t-61 71q-50 -21 -90 -77.5t-41 -127.5q0 -114 67 -167q50 -43 110 -43q66 0 115 52l19 -19q-30 -40 -79.5 -64t-102.5 -24z" />
    <glyph glyph-name="d" unicode="d" horiz-adv-x="581" 
d="M425 -7l-17 68q-94 -66 -182 -66q-78 0 -131 58.5t-53 168.5q0 58 23 109.5t59 85.5q60 59 151 59q64 0 123 -22l-3 226h-94v50l192 13l-6 -278v-413h74v-38zM306 51q31 0 89 34v339q-30 8 -78 8q-85 0 -131.5 -47t-46.5 -138q0 -89 49 -142.5t118 -53.5z" />
    <glyph glyph-name="e" unicode="e" horiz-adv-x="499" 
d="M136 263v-14q1 -54 21 -99t55 -70q53 -37 106 -37q68 0 115 52l19 -19q-30 -40 -81.5 -64t-105.5 -24q-95 0 -161 63.5t-66 174.5q0 104 70 178q32 35 77 56t90 21q31 0 59 -10t56.5 -32.5t46 -67.5t19.5 -108h-320zM140 301l223 5q-21 144 -94 144q-45 0 -81 -42
t-48 -107z" />
    <glyph glyph-name="f" unicode="f" horiz-adv-x="365" 
d="M32 0v40h91v379h-91v50h91v55q0 114 49.5 165t123.5 51q65 0 119 -28q-5 -32 -21.5 -53t-39.5 -21q-39 0 -118 64q-20 -46 -20 -139v-94h116v-50h-117v-379h117v-40h-300z" />
    <glyph glyph-name="g" unicode="g" horiz-adv-x="519" 
d="M147 193q-86 36 -86 123q0 85 66 129q47 30 116 30q64 0 108 -26l88 74l40 -45l-50 -49q20 -37 14 -101t-44 -105q-47 -51 -133 -51q-54 0 -98 13q-23 -36 -23 -55q5 -17 40 -25t143 -17q97 -8 140 -29.5t43 -65.5q0 -39 -29.5 -80.5t-75.5 -72.5q-77 -51 -190 -51
q-42 0 -83 10.5t-72.5 37.5t-31.5 64q0 31 20 69t61 72q-33 20 -33 67q0 24 20.5 47t49.5 37zM337 427q-21 6 -65 6q-122 0 -122 -105q0 -57 30.5 -90t76.5 -33q51 0 74 30t23 94q0 47 -17 98zM136 30q-12 -31 -16.5 -59t0.5 -55.5t21 -47t50 -31.5t84 -12q53 0 105.5 41
t52.5 90q0 27 -36.5 37t-158.5 21q-65 6 -102 16z" />
    <glyph glyph-name="h" unicode="h" horiz-adv-x="587" 
d="M32 0v40h59v640h-70v50l167 13l-8 -326q37 26 84 42.5t87 16.5q74 0 110 -35t36 -119v-282h71v-40h-230v40h66v270q0 53 -36.5 80t-97.5 27q-15 0 -44 -11t-43 -20v-346h66v-40h-217z" />
    <glyph glyph-name="i" unicode="i" horiz-adv-x="319" 
d="M163 580q-28 0 -49 22t-21 51t21 51t49 22t49 -22t21 -51t-21 -51t-49 -22zM32 0v40h91v369l-91 10v50h184v-429h84v-40h-268z" />
    <glyph glyph-name="j" unicode="j" horiz-adv-x="280" 
d="M154 580q-28 0 -49 22t-21 51t21 51t49 22t49 -22t21 -51t-21 -51t-49 -22zM-21 -219q-17 21 -18 45t25 43t72 19q22 0 46 -18q10 25 10 128v411l-91 10v50h184v-430q0 -61 -17.5 -106.5t-52.5 -74t-70.5 -45.5t-87.5 -32z" />
    <glyph glyph-name="k" unicode="k" horiz-adv-x="561" 
d="M397 -6l-161 237l-53 -50v-141h69v-40h-220v40h59v637h-70v53l168 13l-11 -515l193 192h-73v49h213v-50h-75l-138 -131l174 -237h70v-38z" />
    <glyph glyph-name="l" unicode="l" horiz-adv-x="304" 
d="M32 0v40h76v640h-87v50l186 13l-6 -277v-426h83v-40h-252z" />
    <glyph glyph-name="m" unicode="m" horiz-adv-x="892" 
d="M32 0v40h71v360l-71 19v50h138l12 -59q97 66 179 66q83 0 121 -66q101 66 180 66q71 0 106 -34.5t35 -117.5v-284h70v-40h-224v40h62v270q0 54 -34.5 80.5t-94.5 26.5q-31 0 -90 -32q7 -15 7 -67v-278h61v-40h-215v40h62v270q0 107 -126 107q-33 0 -87 -31v-346h62v-40
h-224z" />
    <glyph glyph-name="n" unicode="n" horiz-adv-x="600" 
d="M32 0v40h71v363l-71 16v50h140l11 -59q93 66 181 66q73 0 109.5 -34.5t36.5 -117.5v-284h71v-40h-230v40h66v270q0 53 -36.5 80t-97.5 27q-15 0 -44 -11t-43 -20v-346h66v-40h-230z" />
    <glyph glyph-name="o" unicode="o" horiz-adv-x="566" 
d="M272 -12q-97 0 -165.5 68.5t-68.5 175.5q0 109 73.5 179t183.5 70q96 0 165 -69t69 -176q0 -109 -73.5 -178.5t-183.5 -69.5zM291 24q62 0 98.5 59t36.5 149t-41 150.5t-110 60.5q-62 0 -98.5 -58.5t-36.5 -148.5t41 -151t110 -61z" />
    <glyph glyph-name="p" unicode="p" horiz-adv-x="580" 
d="M13 -214v38h81v580l-71 16v49h138l11 -59q91 66 182 66q78 0 130.5 -60t52.5 -168q0 -116 -82 -194q-62 -59 -150 -59q-60 0 -122 22l7 -193h92v-38h-269zM262 39q178 0 178 187q0 88 -48.5 141t-117.5 53q-24 0 -89 -34v-339q26 -8 77 -8z" />
    <glyph glyph-name="q" unicode="q" horiz-adv-x="564" 
d="M290 -214v38h100l8 230q-88 -59 -172 -59q-78 0 -131 59t-53 168q0 116 81 193q64 61 173 61q88 0 191 -24v-628h71v-38h-268zM306 51q27 0 89 34v335q-45 15 -80 15q-175 0 -175 -191q0 -88 49 -140.5t117 -52.5z" />
    <glyph glyph-name="r" unicode="r" horiz-adv-x="422" 
d="M33 0v40h70v367l-70 12v50h139l11 -59q91 62 195 69q9 -42 -5 -79.5t-38 -39.5q-3 1 -60.5 14t-78.5 19v-353h84v-40h-247z" />
    <glyph glyph-name="s" unicode="s" horiz-adv-x="476" 
d="M68 19v142h41l30 -110q40 -25 81 -25q56 0 85.5 22.5t29.5 58.5q0 31 -24.5 48t-93.5 40q-72 25 -107.5 56t-35.5 87q0 65 53 102.5t142 37.5q72 0 137 -19v-130h-39l-30 96q-38 23 -73 23q-52 0 -76 -23t-24 -56q0 -31 23.5 -48.5t93.5 -42.5q75 -25 109.5 -53.5
t34.5 -81.5q0 -75 -53.5 -111t-145.5 -36q-77 0 -158 23z" />
    <glyph glyph-name="t" unicode="t" horiz-adv-x="404" 
d="M208 -8q-49 0 -73 26.5t-24 86.5v314h-92v50l93 22l30 122h59v-144h131v-50h-128v-313q0 -28 15.5 -40t54.5 -13q15 0 84 6l7 -28q-25 -14 -69.5 -26.5t-87.5 -12.5z" />
    <glyph glyph-name="u" unicode="u" horiz-adv-x="590" 
d="M431 -7l-17 65q-97 -65 -179 -65q-73 0 -109 34t-36 117v275h-71v50h165v-311q0 -53 36 -79.5t97 -26.5q31 0 86 30v337h-74v50h167v-417h75v-38z" />
    <glyph glyph-name="v" unicode="v" horiz-adv-x="558" 
d="M272 -7l-199 426h-54v50h248v-49h-91l135 -316l122 316h-79v49h185v-50h-49l-180 -426h-38z" />
    <glyph glyph-name="w" unicode="w" horiz-adv-x="793" 
d="M244 -7l-174 426h-51v50h229v-49h-79l116 -310l102 359h36l124 -364l114 315h-92v49h205v-50h-56l-170 -426h-44l-115 319l-99 -319h-46z" />
    <glyph glyph-name="x" unicode="x" horiz-adv-x="564" 
d="M19 0v40h64l156 191l-145 188h-66v50h231v-48h-59l101 -145l107 145h-53v48h179v-50h-67l-139 -177l155 -202h62v-40h-245v40h72l-108 159l-118 -159h66v-40h-193z" />
    <glyph glyph-name="y" unicode="y" horiz-adv-x="562" 
d="M276 -3l-202 422h-55v50h251v-48h-93l142 -319l122 319h-80v48h182v-50h-48l-194 -452q-40 -94 -83 -135.5t-96 -44.5q-18 7 -30 25t-10 35q6 48 103 48q29 0 45 -2z" />
    <glyph glyph-name="z" unicode="z" horiz-adv-x="483" 
d="M40 0v38l293 394l-207 -5l-26 -105h-41v147h374v-48l-286 -384l225 6l26 118h41v-161h-399z" />
    <glyph glyph-name="braceleft" unicode="{" horiz-adv-x="433" 
d="M400 -96q-306 1 -306 115q0 76 91 248q-45 24 -182 54v30q137 30 182 54q-91 172 -91 248q0 114 306 115v-33q-124 -9 -169.5 -23.5t-45.5 -50.5q0 -20 10.5 -53t21 -57t27.5 -60.5t19 -41.5q10 -18 4.5 -35t-24 -31.5t-61.5 -26.5t-108 -20q66 -8 109 -20t61.5 -26.5
t23.5 -31.5t-5 -35q-2 -5 -19.5 -42t-27.5 -60.5t-20.5 -57t-10.5 -53.5q0 -37 44.5 -51t170.5 -23v-32z" />
    <glyph glyph-name="bar" unicode="|" horiz-adv-x="332" 
d="M136 -104l6 414l-4 447h58l-6 -447l5 -414h-59z" />
    <glyph glyph-name="braceright" unicode="}" horiz-adv-x="433" 
d="M33 -96v32q126 9 170.5 23t44.5 51q0 20 -10.5 53.5t-20.5 57t-27.5 60.5t-19.5 42q-10 18 -5 35t23.5 31.5t61.5 26.5t109 20q-86 11 -133.5 28.5t-56 38.5t0.5 46q2 5 19 41.5t27.5 60.5t21 57t10.5 53q0 36 -45.5 50.5t-169.5 23.5v33q306 -1 306 -115q0 -76 -91 -248
q45 -24 182 -54v-30q-137 -30 -182 -54q91 -172 91 -248q0 -114 -306 -115z" />
    <glyph glyph-name="asciitilde" unicode="~" horiz-adv-x="499" 
d="M85 324l-19 15q19 39 56.5 79.5t74.5 54.5l115 -65q41 12 102 58l19 -15q-17 -35 -56 -72.5t-75 -49.5l-114 63q-40 -17 -103 -68z" />
    <glyph glyph-name="exclamdown" unicode="&#xa1;" horiz-adv-x="323" 
d="M162 400q-27 0 -47 21t-20 49t20 48.5t47 20.5q26 0 46 -20.5t20 -48.5t-20 -49t-46 -21zM94 -148l25 245l27 223h33l27 -223l24 -245h-136z" />
    <glyph glyph-name="cent" unicode="&#xa2;" horiz-adv-x="564" 
d="M290 -12q-101 5 -165.5 70.5t-61.5 183.5q3 110 85 187q62 59 141 74l-1 111h54l-2 -107q102 -1 154 -40q-2 -40 -17 -64.5t-40 -24.5q-24 0 -52 24t-45 64l-3 -220l2 -200q7 -1 21 -1q67 0 119 55l20 -20q-57 -76 -158 -91l1 -117h-54zM290 472q-49 -27 -84 -83
t-35 -124q-1 -55 17.5 -101.5t51.5 -73.5q23 -20 51 -30l2 186z" />
    <glyph glyph-name="sterling" unicode="&#xa3;" horiz-adv-x="596" 
d="M265 331l147 5v-48l-135 2q13 -49 13 -82q0 -60 -44.5 -101.5t-122.5 -62.5v-7l348 34l14 118h44v-188h-473v40q85 61 112.5 89.5t27.5 59.5t-21 100l-103 -2v48l89 -3q-37 103 -37 140q0 80 86 134q60 38 134 38q76 0 124 -39q-5 -31 -22.5 -49t-40.5 -16q-56 5 -102 77
q-33 -14 -59 -49.5t-26 -67.5q0 -13 5 -34t10.5 -38.5t16 -49t15.5 -48.5z" />
    <glyph glyph-name="currency" unicode="&#xa4;" horiz-adv-x="647" 
d="M154 281l-102 -3v51l114 -3q23 60 69 103q81 78 189 78q101 0 154 -40q-5 -79 -55 -79q-27 0 -62 25.5t-65 68.5q-43 -16 -81 -58.5t-53 -100.5l205 6v-51l-211 6q-1 -6 -1 -19q0 -31 7 -70l205 6v-51l-191 5q19 -41 48 -64q52 -44 122 -44q69 0 119 53l20 -20
q-31 -43 -83.5 -68t-108.5 -25q-86 0 -149 42.5t-85 123.5l-107 -3v51l99 -3q0 6 -0.5 18t-0.5 19q0 26 4 46z" />
    <glyph glyph-name="yen" unicode="&#xa5;" horiz-adv-x="633" 
d="M191 0v39h77l1 83l-178 -4v52l179 -5l1 64l-16 21l-164 -4v52l129 -4l-122 158h-49v39h253v-39h-83l127 -183l135 183h-67v39h170v-39h-45l-123 -158l128 4v-52l-162 4l-17 -21l1 -64l178 5v-52l-177 4l1 -83h78v-39h-255z" />
    <glyph glyph-name="brokenbar" unicode="&#xa6;" horiz-adv-x="379" 
d="M160 392l6 176l-4 189h57l-6 -189l5 -176h-58zM160 -104l6 176l-4 189h57l-6 -189l5 -176h-58z" />
    <glyph glyph-name="section" unicode="&#xa7;" horiz-adv-x="521" 
d="M128 376q-27 30 -27 76q0 49 31 83t69 47t77 13q135 0 146 -126q-29 -19 -52 -19q-29 0 -48 28.5t-20 87.5q-45 3 -79 -20t-34 -60q0 -19 5 -32t25.5 -28.5t33 -23t55.5 -30.5q86 -50 115.5 -78.5t29.5 -77.5q0 -73 -60 -135q24 -31 24 -75q0 -71 -54.5 -107t-117.5 -36
q-131 0 -142 126q27 19 53 19q29 0 47.5 -28.5t19.5 -87.5q44 -3 74 20t30 60q0 36 -22 56t-93 59q-85 49 -115 77.5t-30 77.5q0 71 59 134zM372 102q13 46 13 65q0 35 -25 57.5t-101 63.5q-80 45 -107 66q-13 -46 -13 -63q0 -35 25 -57t101 -64q79 -44 107 -68z" />
    <glyph glyph-name="dieresis" unicode="&#xa8;" horiz-adv-x="522" 
d="M351 552q-24 0 -41.5 19t-17.5 45t17.5 44.5t41.5 18.5q23 0 41 -19t18 -44q0 -26 -18 -45t-41 -19zM171 552q-23 0 -41 19.5t-18 44.5t18 44t41 19t41 -19t18 -44t-18 -44.5t-41 -19.5z" />
    <glyph glyph-name="copyright" unicode="&#xa9;" horiz-adv-x="776" 
d="M388 -11q-147 0 -246.5 99.5t-99.5 252.5t99.5 252.5t246.5 99.5t246.5 -100t99.5 -252t-99.5 -252t-246.5 -100zM388 28q130 0 216 89t86 224t-86 224t-216 89t-216 -89t-86 -224t86 -224t216 -89zM400 119q-92 0 -152 61.5t-60 162.5q0 92 62 156t145 64q70 0 111 -46
v45h35v-148h-29l-25 85q-42 29 -86 29q-59 0 -97.5 -46.5t-38.5 -128.5q0 -81 41 -138.5t110 -57.5q57 0 112 44l15 -19q-67 -63 -143 -63z" />
    <glyph glyph-name="ordfeminine" unicode="&#xaa;" horiz-adv-x="410" 
d="M275 270l-15 47q-54 -46 -122 -46q-48 0 -75.5 24t-27.5 63q0 58 46 86q58 35 168 33q0 79 -12 112.5t-38 46.5q-8 -19 -37 -45.5t-63 -26.5q-16 0 -26.5 17.5t-9.5 41.5q64 33 135 33q132 0 132 -136v-201h53v-37zM249 334v125q-71 -21 -75 -23q-59 -25 -59 -63
q0 -27 20.5 -41.5t56.5 -14.5q21 0 57 17z" />
    <glyph glyph-name="guillemotleft" unicode="&#xab;" horiz-adv-x="584" 
d="M468 16l-183 200v35l183 200l22 -14l-102 -204l102 -203zM264 16l-183 200v35l183 200l22 -14l-102 -204l102 -203z" />
    <glyph glyph-name="logicalnot" unicode="&#xac;" 
d="M318 501v233l-191 -15v51l244 -10l-9 -259h181l-9 259l244 10v-51l-191 15v-233h263l-15 191h50l-10 -245l-288 10v-240l288 10l10 -246h-50l15 191h-263v-232l191 15v-51l-244 10l9 258h-182l10 -258l-244 -10v51l191 -15v232h-264l15 -191h-50l10 246l289 -10v240
l-289 -10l-10 245h50l-15 -191h264zM360 459l-4 -124l4 -120l97 -3l87 3l5 127l-4 117l-96 3z" />
    <glyph glyph-name="registered" unicode="&#xae;" horiz-adv-x="776" 
d="M388 -11q-147 0 -246.5 99.5t-99.5 252.5t99.5 252.5t246.5 99.5t246.5 -100t99.5 -252t-99.5 -252t-246.5 -100zM388 28q130 0 216 89t86 224t-86 224t-216 89t-216 -89t-86 -224t86 -224t216 -89zM503 125l-42 75q-49 86 -89 125h-45l3 -164h41v-27h-158v27h45l3 181
l-3 179h-45v30h154q77 0 120 -26t43 -77q0 -35 -25.5 -65t-68.5 -43v-3q33 -27 84 -109l37 -59h40v-24zM327 348l64 3q25 7 44.5 27.5t19.5 57.5q0 41 -26 64.5t-68 23.5h-31z" />
    <glyph glyph-name="macron" unicode="&#xaf;" horiz-adv-x="474" 
d="M74 571v50h325v-50h-325z" />
    <glyph glyph-name="macron" unicode="&#x2c9;" horiz-adv-x="474" 
d="M74 571v50h325v-50h-325z" />
    <glyph glyph-name="degree" unicode="&#xb0;" horiz-adv-x="437" 
d="M217 342q-64 0 -112 44t-48 111q0 68 49 113.5t114 45.5q64 0 112 -44t48 -111q0 -68 -49 -113.5t-114 -45.5zM222 376q37 0 61 33t24 88t-27 91t-64 36q-36 0 -61 -34.5t-25 -88.5q0 -55 28 -90t64 -35z" />
    <glyph glyph-name="plusminus" unicode="&#xb1;" horiz-adv-x="946" 
d="M32 0v40h91v379h-91v50h91v25q0 49 11 87.5t29 62.5t42.5 39t49.5 21t53 6q59 0 106 -28q-3 -28 -19 -49t-33 -21q-24 0 -60 18t-64 43q-22 -51 -22 -140v-64h220v47q0 61 16.5 107t43.5 70.5t55 35.5t56 11q67 0 151 -22l90 22l-5 -274v-426h84v-40h-243v40h66v598
l-173 58q-47 -50 -47 -133v-94h92v-50h-93v-379h65v-40h-224v40h66v379h-221v-379h66v-40h-249z" />
    <glyph glyph-name="twosuperior" unicode="&#xb2;" horiz-adv-x="402" 
d="M50 315v26q119 107 142 134q33 42 32 90q-2 75 -101 75q-31 0 -62 -13l-8 22q59 44 142 44q49 0 85 -28t36 -85q0 -49 -40 -91.5t-164 -125.5l1 -5l182 12l9 63h39v-118h-293z" />
    <glyph glyph-name="threesuperior" unicode="&#xb3;" horiz-adv-x="365" 
d="M49 318q-5 22 4.5 36.5t28.5 14.5q58 0 112 -34q19 15 26.5 22t16.5 24.5t9 37.5q0 63 -128 95l-3 17q67 26 80 41q11 12 11 26q0 21 -19.5 33t-56.5 12q-34 0 -65 -14l-9 22q58 42 134 42q47 0 72 -17.5t25 -46.5q0 -47 -73 -75q113 -33 113 -101q0 -64 -60.5 -104
t-139.5 -40q-49 0 -78 9z" />
    <glyph glyph-name="acute" unicode="&#xb4;" horiz-adv-x="492" 
d="M159 537l-12 20l147 134l105 -67z" />
    <glyph glyph-name="mu" unicode="&#xb5;" 
d="M325 501v233l-191 -15v51l244 -10l-9 -259h181l-9 259l244 10v-51l-191 15v-233h263l-15 191h50l-10 -245l-288 10v-240l288 10l10 -246h-50l15 191h-263v-232l191 15v-51l-244 10l9 258h-182l10 -258l-244 -10v51l191 -15v232h-264l15 -191h-50l10 246l289 -10v240
l-289 -10l-10 245h50l-15 -191h264zM367 459l-4 -124l4 -120l97 -3l87 3l5 127l-4 117l-96 3z" />
    <glyph glyph-name="mu" unicode="&#x3bc;" 
d="M325 501v233l-191 -15v51l244 -10l-9 -259h181l-9 259l244 10v-51l-191 15v-233h263l-15 191h50l-10 -245l-288 10v-240l288 10l10 -246h-50l15 191h-263v-232l191 15v-51l-244 10l9 258h-182l10 -258l-244 -10v51l191 -15v232h-264l15 -191h-50l10 246l289 -10v240
l-289 -10l-10 245h50l-15 -191h264zM367 459l-4 -124l4 -120l97 -3l87 3l5 127l-4 117l-96 3z" />
    <glyph glyph-name="paragraph" unicode="&#xb6;" horiz-adv-x="481" 
d="M35 275q0 60 24.5 101.5t69.5 62.5t94.5 29t112.5 8q60 0 133 -7v-53l-69 -13v-332q0 -95 -48 -146.5t-122 -51.5q-54 0 -112 30q2 26 14 45t33 19q45 0 99 -68q40 31 40 138v72q-30 -8 -61 -8q-83 0 -145.5 44.5t-62.5 129.5z" />
    <glyph glyph-name="periodcentered" unicode="&#xb7;" horiz-adv-x="288" 
d="M144 282q-29 0 -51 23t-22 54t22 54t51 23t51 -23t22 -54t-22 -54t-51 -23z" />
    <glyph glyph-name="periodcentered" unicode="&#x2219;" horiz-adv-x="288" 
d="M144 282q-29 0 -51 23t-22 54t22 54t51 23t51 -23t22 -54t-22 -54t-51 -23z" />
    <glyph glyph-name="cedilla" unicode="&#xb8;" horiz-adv-x="505" 
d="M184 -248l-1 31q127 0 127 68q0 28 -28 45t-73 18l24 93h41l-19 -72q55 11 91 -8t36 -63q0 -54 -52.5 -82.5t-145.5 -29.5z" />
    <glyph glyph-name="onesuperior" unicode="&#xb9;" horiz-adv-x="331" 
d="M60 323v30h71v295h-71v35l159 18v-348h49v-30h-208z" />
    <glyph glyph-name="ordmasculine" unicode="&#xba;" horiz-adv-x="457" 
d="M222 264q-80 0 -134.5 54t-54.5 140q0 85 60.5 141.5t141.5 56.5q80 0 134.5 -54t54.5 -140q0 -85 -60.5 -141.5t-141.5 -56.5zM231 297q52 0 80 44.5t28 116.5q0 73 -30 119t-83 46q-52 0 -80 -44.5t-28 -116.5q0 -73 30 -119t83 -46z" />
    <glyph glyph-name="guillemotright" unicode="&#xbb;" horiz-adv-x="584" 
d="M320 16l-22 14l102 203l-102 204l22 14l183 -200v-35zM116 16l-22 14l102 203l-102 204l22 14l183 -200v-35z" />
    <glyph glyph-name="onequarter" unicode="&#xbc;" horiz-adv-x="802" 
d="M60 271v29h71v296h-71v35l159 18v-349h49v-29h-208zM230 -12l-41 23l185 311l186 334l41 -23l-196 -334zM612 0l2 87h-188v40l203 246l70 -2l-4 -232h56v-52h-55l3 -87h-87zM477 139h138l-2 155z" />
    <glyph glyph-name="onehalf" unicode="&#xbd;" horiz-adv-x="844" 
d="M60 271v29h71v296h-71v35l159 18v-349h49v-29h-208zM230 -12l-41 23l185 311l186 334l41 -23l-196 -334zM494 -2v26q120 106 148 140.5t27 83.5q-2 75 -101 75q-31 0 -62 -13l-8 22q59 44 142 44q49 0 85 -28t36 -84q0 -50 -40 -92.5t-164 -125.5l1 -5l182 12l9 63h39
v-118h-294z" />
    <glyph glyph-name="threequarters" unicode="&#xbe;" horiz-adv-x="832" 
d="M49 271q-5 22 4.5 36.5t28.5 14.5q57 0 112 -33q19 15 26.5 22t16.5 24t9 37q0 64 -128 95l-3 18q33 12 48 19t29 19.5t14 28.5q0 44 -76 44q-32 0 -65 -13l-9 21q58 42 134 42q47 0 72 -17.5t25 -46.5q0 -46 -73 -75q113 -33 113 -100q0 -64 -60.5 -104t-139.5 -40
q-53 0 -78 8zM260 -12l-41 23l185 311l186 334l41 -23l-196 -334zM642 0l2 87h-188v40l203 246l70 -2l-4 -232h56v-52h-55l3 -87h-87zM507 139h138l-2 155z" />
    <glyph glyph-name="questiondown" unicode="&#xbf;" horiz-adv-x="442" 
d="M255 403q-26 0 -45.5 20.5t-19.5 48.5t19.5 48t45.5 20t46 -20t20 -48t-20 -48.5t-46 -20.5zM284 -148q-92 0 -158.5 62t-66.5 163q0 56 45.5 97.5t130.5 58.5l-8 96l34 8l50 -141q-170 -93 -170 -159q0 -47 28.5 -92t67.5 -62q56 66 97 66q46 0 57 -68q-43 -29 -107 -29
z" />
    <glyph glyph-name="Agrave" unicode="&#xc0;" horiz-adv-x="750" 
d="M8 0v42h57l286 652h39l160 -378l125 -274h67v-42h-289v42h108l-72 187h-287l-76 -187h104v-42h-222zM217 271h253l-128 294zM457 741l-239 87l105 67l147 -134z" />
    <glyph glyph-name="Aacute" unicode="&#xc1;" horiz-adv-x="750" 
d="M8 0v42h57l286 652h39l160 -378l125 -274h67v-42h-289v42h108l-72 187h-287l-76 -187h104v-42h-222zM217 271h253l-128 294zM285 741l-12 20l147 134l105 -67z" />
    <glyph glyph-name="Acircumflex" unicode="&#xc2;" horiz-adv-x="750" 
d="M8 0v42h57l286 652h39l160 -378l125 -274h67v-42h-289v42h108l-72 187h-287l-76 -187h104v-42h-222zM217 271h253l-128 294zM238 714l-20 15l126 174h62l125 -174l-21 -15l-136 101z" />
    <glyph glyph-name="Atilde" unicode="&#xc3;" horiz-adv-x="750" 
d="M8 0v42h57l286 652h39l160 -378l125 -274h67v-42h-289v42h108l-72 187h-287l-76 -187h104v-42h-222zM217 271h253l-128 294zM218 742l-19 15q18 38 56 81t74 57l115 -69q43 11 100 58l20 -16q-17 -34 -56.5 -73.5t-74.5 -51.5l-114 67q-40 -18 -101 -68z" />
    <glyph glyph-name="Adieresis" unicode="&#xc4;" horiz-adv-x="750" 
d="M569 557q-23 0 -41 19t-18 44t18 44.5t41 19.5t41 -19.5t18 -44.5t-18 -44t-41 -19zM174 557q-23 0 -40.5 19t-17.5 44q0 26 17.5 45t40.5 19q24 0 42 -19t18 -45q0 -25 -18 -44t-42 -19zM8 0v42h57l286 652h39l160 -378l125 -274h67v-42h-289v42h108l-72 187h-287
l-76 -187h104v-42h-222zM217 271h253l-128 294z" />
    <glyph glyph-name="Aring" unicode="&#xc5;" horiz-adv-x="750" 
d="M8 0v42h57l279 635q-35 8 -57.5 32.5t-22.5 55.5q0 38 31.5 66.5t74.5 28.5q44 0 76.5 -27.5t32.5 -65.5q0 -32 -23 -57.5t-58 -33.5l152 -360l125 -274h67v-42h-289v42h108l-72 187h-287l-76 -187h104v-42h-222zM371 699q24 1 39 20t15 46q0 28 -16 49t-39 20
t-38.5 -21.5t-14.5 -47.5q1 -28 16 -47.5t38 -18.5zM217 271h253l-128 294z" />
    <glyph glyph-name="AE" unicode="&#xc6;" horiz-adv-x="944" 
d="M2 0v42h61l344 596h-87v46h534v-169h-51l-23 117l-206 10l-7 -277l213 10v-61l-213 10l7 -285l230 10l23 130h49v-179h-492v42h86l3 198h-237l-111 -198h79v-42h-202zM260 283h214l1 59l-5 311z" />
    <glyph glyph-name="Ccedilla" unicode="&#xc7;" horiz-adv-x="715" 
d="M334 -9q-137 14 -214.5 107.5t-77.5 243.5q0 146 100.5 248t239.5 102q118 0 204 -74v71h59v-228h-49l-42 134q-74 47 -168 47q-109 0 -171.5 -75.5t-62.5 -208.5q0 -130 71.5 -223.5t195.5 -93.5q44 0 103 21t106 55l21 -28q-50 -43 -121 -72t-145 -29h-9l-14 -53
q55 11 91 -8t36 -63q0 -54 -52.5 -82.5t-145.5 -29.5l-1 31q127 0 127 68q0 28 -28 45t-73 18z" />
    <glyph glyph-name="Egrave" unicode="&#xc8;" horiz-adv-x="589" 
d="M33 0v42h85l5 300l-5 296h-85v46h471v-169h-51l-23 117l-206 10l-7 -277l219 10v-61l-219 10l7 -285l230 10l23 130h51v-179h-495zM380 741l-239 87l105 67l147 -134z" />
    <glyph glyph-name="Eacute" unicode="&#xc9;" horiz-adv-x="589" 
d="M33 0v42h85l5 300l-5 296h-85v46h471v-169h-51l-23 117l-206 10l-7 -277l219 10v-61l-219 10l7 -285l230 10l23 130h51v-179h-495zM207 741l-12 20l147 134l105 -67z" />
    <glyph glyph-name="Ecircumflex" unicode="&#xca;" horiz-adv-x="589" 
d="M33 0v42h85l5 300l-5 296h-85v46h471v-169h-51l-23 117l-206 10l-7 -277l219 10v-61l-219 10l7 -285l230 10l23 130h51v-179h-495zM157 741l-20 15l126 174h62l125 -174l-21 -15l-136 101z" />
    <glyph glyph-name="Edieresis" unicode="&#xcb;" horiz-adv-x="589" 
d="M33 0v42h85l5 300l-5 296h-85v46h471v-169h-51l-23 117l-206 10l-7 -277l219 10v-61l-219 10l7 -285l230 10l23 130h51v-179h-495zM384 756q-24 0 -41.5 19t-17.5 45t17.5 44.5t41.5 18.5q23 0 41 -19t18 -44q0 -26 -18 -45t-41 -19zM204 756q-23 0 -41 19.5t-18 44.5
t18 44t41 19t41 -19t18 -44t-18 -44.5t-41 -19.5z" />
    <glyph glyph-name="Igrave" unicode="&#xcc;" horiz-adv-x="361" 
d="M33 0v42h95l4 300l-4 296h-95v46h295v-46h-95l-5 -296l5 -300h95v-42h-295zM266 741l-239 87l105 67l147 -134z" />
    <glyph glyph-name="Iacute" unicode="&#xcd;" horiz-adv-x="361" 
d="M33 0v42h95l4 300l-4 296h-95v46h295v-46h-95l-5 -296l5 -300h95v-42h-295zM93 741l-12 20l147 134l105 -67z" />
    <glyph glyph-name="Icircumflex" unicode="&#xce;" horiz-adv-x="361" 
d="M33 0v42h95l4 300l-4 296h-95v46h295v-46h-95l-5 -296l5 -300h95v-42h-295zM43 741l-20 15l126 174h62l125 -174l-21 -15l-136 101z" />
    <glyph glyph-name="Idieresis" unicode="&#xcf;" horiz-adv-x="361" 
d="M33 0v42h95l4 300l-4 296h-95v46h295v-46h-95l-5 -296l5 -300h95v-42h-295zM270 756q-24 0 -41.5 19t-17.5 45t17.5 44.5t41.5 18.5q23 0 41 -19t18 -44q0 -26 -18 -45t-41 -19zM90 756q-23 0 -41 19.5t-18 44.5t18 44t41 19t41 -19t18 -44t-18 -44.5t-41 -19.5z" />
    <glyph glyph-name="Eth" unicode="&#xd0;" horiz-adv-x="771" 
d="M33 0v42h85l5 274l-87 -3v57l87 -3l-5 268h-85v49h319q164 0 267 -83.5t103 -243.5q0 -153 -108 -255t-271 -102h-310zM223 40h130q120 0 189 82t69 215q0 135 -70 220.5t-193 85.5h-125l-5 -277l142 4v-57l-142 4z" />
    <glyph glyph-name="Ntilde" unicode="&#xd1;" horiz-adv-x="786" 
d="M645 -5l-480 554l10 -507h93v-42h-235v42h79l7 560l-29 36h-68v46h161l440 -520l-8 474h-94v46h232v-46h-76l-10 -643h-22zM235 742l-19 15q18 38 56 81t74 57l115 -69q43 11 100 58l20 -16q-17 -34 -56.5 -73.5t-74.5 -51.5l-114 67q-40 -18 -101 -68z" />
    <glyph glyph-name="Ograve" unicode="&#xd2;" horiz-adv-x="800" 
d="M390 -12q-150 0 -249 98.5t-99 255.5q0 145 109.5 249.5t258.5 104.5q150 0 249 -99t99 -256q0 -145 -111.5 -249t-256.5 -104zM404 32q108 0 175.5 84.5t67.5 219.5q0 130 -74.5 221.5t-176.5 91.5q-107 0 -175 -84t-68 -219q0 -129 75 -221.5t176 -92.5zM486 741
l-239 87l105 67l147 -134z" />
    <glyph glyph-name="Oacute" unicode="&#xd3;" horiz-adv-x="800" 
d="M390 -12q-150 0 -249 98.5t-99 255.5q0 145 109.5 249.5t258.5 104.5q150 0 249 -99t99 -256q0 -145 -111.5 -249t-256.5 -104zM404 32q108 0 175.5 84.5t67.5 219.5q0 130 -74.5 221.5t-176.5 91.5q-107 0 -175 -84t-68 -219q0 -129 75 -221.5t176 -92.5zM313 741
l-12 20l147 134l105 -67z" />
    <glyph glyph-name="Ocircumflex" unicode="&#xd4;" horiz-adv-x="800" 
d="M390 -12q-150 0 -249 98.5t-99 255.5q0 145 109.5 249.5t258.5 104.5q150 0 249 -99t99 -256q0 -145 -111.5 -249t-256.5 -104zM404 32q108 0 175.5 84.5t67.5 219.5q0 130 -74.5 221.5t-176.5 91.5q-107 0 -175 -84t-68 -219q0 -129 75 -221.5t176 -92.5zM263 741
l-20 15l126 174h62l125 -174l-21 -15l-136 101z" />
    <glyph glyph-name="Otilde" unicode="&#xd5;" horiz-adv-x="800" 
d="M390 -12q-150 0 -249 98.5t-99 255.5q0 145 109.5 249.5t258.5 104.5q150 0 249 -99t99 -256q0 -145 -111.5 -249t-256.5 -104zM404 32q108 0 175.5 84.5t67.5 219.5q0 130 -74.5 221.5t-176.5 91.5q-107 0 -175 -84t-68 -219q0 -129 75 -221.5t176 -92.5zM236 742
l-19 15q18 38 56 81t74 57l115 -69q43 11 100 58l20 -16q-17 -34 -56.5 -73.5t-74.5 -51.5l-114 67q-40 -18 -101 -68z" />
    <glyph glyph-name="Odieresis" unicode="&#xd6;" horiz-adv-x="800" 
d="M390 -12q-150 0 -249 98.5t-99 255.5q0 145 109.5 249.5t258.5 104.5q150 0 249 -99t99 -256q0 -145 -111.5 -249t-256.5 -104zM404 32q108 0 175.5 84.5t67.5 219.5q0 130 -74.5 221.5t-176.5 91.5q-107 0 -175 -84t-68 -219q0 -129 75 -221.5t176 -92.5zM490 756
q-24 0 -41.5 19t-17.5 45t17.5 44.5t41.5 18.5q23 0 41 -19t18 -44q0 -26 -18 -45t-41 -19zM310 756q-23 0 -41 19.5t-18 44.5t18 44t41 19t41 -19t18 -44t-18 -44.5t-41 -19.5z" />
    <glyph glyph-name="multiply" unicode="&#xd7;" horiz-adv-x="592" 
d="M170 91l-40 48l122 122l-126 124l49 42l121 -122l125 125l40 -48l-120 -121l124 -124l-48 -42l-121 122z" />
    <glyph glyph-name="Oslash" unicode="&#xd8;" horiz-adv-x="800" 
d="M648 607q110 -102 110 -266q0 -145 -111.5 -249t-256.5 -104q-117 0 -206 64l-80 -100l-41 33l83 97q-104 99 -104 260q0 145 109.5 249.5t258.5 104.5q114 0 199 -60l71 87l40 -33zM209 155l158 184l191 234q-71 76 -162 76q-107 0 -175 -84t-68 -219q0 -106 56 -191z
M586 534l-188 -222l-161 -197q72 -83 167 -83q108 0 175.5 84.5t67.5 219.5q0 113 -61 198z" />
    <glyph glyph-name="Ugrave" unicode="&#xd9;" horiz-adv-x="804" 
d="M404 -8q-131 0 -210.5 75.5t-80.5 214.5l-4 356h-76v46h288v-46h-106l-6 -347q-1 -117 63 -177.5t162 -60.5q94 0 152.5 64t57.5 174l-7 347h-102v46h236v-46h-71l-5 -338q-2 -149 -82.5 -228.5t-208.5 -79.5zM500 741l-239 87l105 67l147 -134z" />
    <glyph glyph-name="Uacute" unicode="&#xda;" horiz-adv-x="804" 
d="M404 -8q-131 0 -210.5 75.5t-80.5 214.5l-4 356h-76v46h288v-46h-106l-6 -347q-1 -117 63 -177.5t162 -60.5q94 0 152.5 64t57.5 174l-7 347h-102v46h236v-46h-71l-5 -338q-2 -149 -82.5 -228.5t-208.5 -79.5zM330 741l-12 20l147 134l105 -67z" />
    <glyph glyph-name="Ucircumflex" unicode="&#xdb;" horiz-adv-x="804" 
d="M404 -8q-131 0 -210.5 75.5t-80.5 214.5l-4 356h-76v46h288v-46h-106l-6 -347q-1 -117 63 -177.5t162 -60.5q94 0 152.5 64t57.5 174l-7 347h-102v46h236v-46h-71l-5 -338q-2 -149 -82.5 -228.5t-208.5 -79.5zM288 741l-20 15l126 174h62l125 -174l-21 -15l-136 101z" />
    <glyph glyph-name="Udieresis" unicode="&#xdc;" horiz-adv-x="804" 
d="M404 -8q-131 0 -210.5 75.5t-80.5 214.5l-4 356h-76v46h288v-46h-106l-6 -347q-1 -117 63 -177.5t162 -60.5q94 0 152.5 64t57.5 174l-7 347h-102v46h236v-46h-71l-5 -338q-2 -149 -82.5 -228.5t-208.5 -79.5zM522 756q-24 0 -41.5 19t-17.5 45t17.5 44.5t41.5 18.5
q23 0 41 -19t18 -44q0 -26 -18 -45t-41 -19zM342 756q-23 0 -41 19.5t-18 44.5t18 44t41 19t41 -19t18 -44t-18 -44.5t-41 -19.5z" />
    <glyph glyph-name="Yacute" unicode="&#xdd;" horiz-adv-x="703" 
d="M195 0v42h104l4 272l-238 324h-57v46h274v-46h-97l191 -281l200 281h-97v46h216v-46h-50l-246 -322l5 -274h104v-42h-313zM283 741l-12 20l147 134l105 -67z" />
    <glyph glyph-name="Thorn" unicode="&#xde;" horiz-adv-x="630" 
d="M33 0v42h85l5 300l-5 293h-85v49h295v-49h-104l-1 -80h96q136 0 198 -42.5t62 -139.5q0 -96 -76 -152t-198 -56h-85l4 -123h104v-42h-295zM217 208h96q156 0 156 145q0 76 -46 117.5t-114 41.5h-87z" />
    <glyph glyph-name="germandbls" unicode="&#xdf;" horiz-adv-x="619" 
d="M403 369q0 -29 17 -43.5t66 -35.5q65 -29 94 -57.5t29 -80.5q0 -78 -50 -117t-135 -39q-61 0 -141 24v145h42l30 -112q37 -27 67 -27q46 0 71.5 24.5t25.5 65.5q0 24 -19 41t-65 36q-57 25 -83 50.5t-26 77.5q0 49 42.5 138t42.5 149q0 41 -27.5 70.5t-77.5 38.5
q-91 -44 -91 -154v-563h-183v40h91v379h-91v50h91v47q0 51 15 91.5t38 65t53 40t56 21.5t51 6q72 0 111.5 -41t39.5 -87q0 -47 -42 -125t-42 -118z" />
    <glyph glyph-name="agrave" unicode="&#xe0;" horiz-adv-x="491" 
d="M40 102q0 77 54 111q60 39 215 41q0 109 -11 149.5t-48 49.5q-76 -100 -126 -100q-33 0 -50 60q37 25 97 44t115 19q116 0 116 -165v-259h70v-38l-130 -20l-20 64q-72 -63 -156 -63q-54 0 -90 30t-36 77zM133 121q0 -34 23.5 -53t63.5 -19q10 0 41 12t48 21v149
q-89 -18 -131 -41q-45 -24 -45 -69zM331 537l-239 87l105 67l147 -134z" />
    <glyph glyph-name="aacute" unicode="&#xe1;" horiz-adv-x="491" 
d="M40 102q0 77 54 111q60 39 215 41q0 109 -11 149.5t-48 49.5q-76 -100 -126 -100q-33 0 -50 60q37 25 97 44t115 19q116 0 116 -165v-259h70v-38l-130 -20l-20 64q-72 -63 -156 -63q-54 0 -90 30t-36 77zM133 121q0 -34 23.5 -53t63.5 -19q10 0 41 12t48 21v149
q-89 -18 -131 -41q-45 -24 -45 -69zM158 537l-12 20l147 134l105 -67z" />
    <glyph glyph-name="acircumflex" unicode="&#xe2;" horiz-adv-x="491" 
d="M40 102q0 77 54 111q60 39 215 41q0 109 -11 149.5t-48 49.5q-76 -100 -126 -100q-33 0 -50 60q37 25 97 44t115 19q116 0 116 -165v-259h70v-38l-130 -20l-20 64q-72 -63 -156 -63q-54 0 -90 30t-36 77zM133 121q0 -34 23.5 -53t63.5 -19q10 0 41 12t48 21v149
q-89 -18 -131 -41q-45 -24 -45 -69zM109 537l-20 15l126 174h62l125 -174l-21 -15l-136 101z" />
    <glyph glyph-name="atilde" unicode="&#xe3;" horiz-adv-x="491" 
d="M40 102q0 77 54 111q60 39 215 41q0 109 -11 149.5t-48 49.5q-76 -100 -126 -100q-33 0 -50 60q37 25 97 44t115 19q116 0 116 -165v-259h70v-38l-130 -20l-20 64q-72 -63 -156 -63q-54 0 -90 30t-36 77zM133 121q0 -34 23.5 -53t63.5 -19q10 0 41 12t48 21v149
q-89 -18 -131 -41q-45 -24 -45 -69zM82 538l-19 15q18 38 56 81t74 57l115 -69q43 11 100 58l20 -16q-17 -34 -56.5 -73.5t-74.5 -51.5l-114 67q-40 -18 -101 -68z" />
    <glyph glyph-name="adieresis" unicode="&#xe4;" horiz-adv-x="491" 
d="M40 102q0 77 54 111q60 39 215 41q0 109 -11 149.5t-48 49.5q-76 -100 -126 -100q-33 0 -50 60q37 25 97 44t115 19q116 0 116 -165v-259h70v-38l-130 -20l-20 64q-72 -63 -156 -63q-54 0 -90 30t-36 77zM133 121q0 -34 23.5 -53t63.5 -19q10 0 41 12t48 21v149
q-89 -18 -131 -41q-45 -24 -45 -69zM336 552q-24 0 -41.5 19t-17.5 45t17.5 44.5t41.5 18.5q23 0 41 -19t18 -44q0 -26 -18 -45t-41 -19zM156 552q-23 0 -41 19.5t-18 44.5t18 44t41 19t41 -19t18 -44t-18 -44.5t-41 -19.5z" />
    <glyph glyph-name="aring" unicode="&#xe5;" horiz-adv-x="491" 
d="M40 102q0 77 54 111q60 39 215 41q0 109 -11 149.5t-48 49.5q-76 -100 -126 -100q-33 0 -50 60q37 25 97 44t115 19q116 0 116 -165v-259h70v-38l-130 -20l-20 64q-72 -63 -156 -63q-54 0 -90 30t-36 77zM133 121q0 -34 23.5 -53t63.5 -19q10 0 41 12t48 21v149
q-89 -18 -131 -41q-45 -24 -45 -69zM250 530q-44 0 -76 27t-32 65t31.5 66.5t74.5 28.5q44 0 76.5 -27.5t32.5 -65.5t-31.5 -66t-75.5 -28zM195 622q1 -28 16.5 -47.5t38.5 -18.5t38.5 20t15.5 46q0 28 -16 49t-39 20t-38.5 -21t-15.5 -48z" />
    <glyph glyph-name="ae" unicode="&#xe6;" horiz-adv-x="766" 
d="M402 263v-14q1 -54 21 -99t55 -70q53 -37 107 -37q66 0 115 52l19 -19q-30 -40 -81.5 -64t-106.5 -24q-52 0 -99.5 23.5t-75.5 60.5q-40 -37 -91 -57t-98 -20q-54 0 -90.5 30t-36.5 77q0 77 54 111q60 39 215 41q0 100 -16.5 141t-57.5 57q-63 -91 -113 -91
q-18 0 -32 17.5t-19 48.5q21 19 69.5 34t94.5 15q109 0 139 -82q78 87 168 87q31 0 59 -10t56.5 -32.5t46 -67.5t19.5 -108h-321zM405 300l225 6q-22 140 -94 140q-46 0 -82.5 -39.5t-48.5 -106.5zM221 50q51 0 123 40q-35 55 -35 142q-83 -16 -131 -42q-45 -24 -45 -69
q0 -71 88 -71z" />
    <glyph glyph-name="ccedilla" unicode="&#xe7;" horiz-adv-x="489" 
d="M221 -8q-81 13 -132 72t-51 156q0 111 80 189q76 73 179 73q98 0 149 -38q-3 -38 -17.5 -61t-37.5 -23q-26 0 -60 27t-61 71q-50 -21 -90 -77.5t-41 -127.5q0 -114 67 -167q50 -43 110 -43q66 0 115 52l19 -19q-30 -40 -79.5 -64t-102.5 -24h-7l-14 -53q55 11 91 -8
t36 -63q0 -54 -53 -82.5t-145 -29.5l-1 31q127 0 127 68q0 28 -28 45t-73 18z" />
    <glyph glyph-name="egrave" unicode="&#xe8;" horiz-adv-x="499" 
d="M136 263v-14q1 -54 21 -99t55 -70q53 -37 106 -37q68 0 115 52l19 -19q-30 -40 -81.5 -64t-105.5 -24q-95 0 -161 63.5t-66 174.5q0 104 70 178q32 35 77 56t90 21q31 0 59 -10t56.5 -32.5t46 -67.5t19.5 -108h-320zM140 301l223 5q-21 144 -94 144q-45 0 -81 -42
t-48 -107zM336 537l-239 87l105 67l147 -134z" />
    <glyph glyph-name="eacute" unicode="&#xe9;" horiz-adv-x="499" 
d="M136 263v-14q1 -54 21 -99t55 -70q53 -37 106 -37q68 0 115 52l19 -19q-30 -40 -81.5 -64t-105.5 -24q-95 0 -161 63.5t-66 174.5q0 104 70 178q32 35 77 56t90 21q31 0 59 -10t56.5 -32.5t46 -67.5t19.5 -108h-320zM140 301l223 5q-21 144 -94 144q-45 0 -81 -42
t-48 -107zM163 537l-12 20l147 134l105 -67z" />
    <glyph glyph-name="ecircumflex" unicode="&#xea;" horiz-adv-x="499" 
d="M136 263v-14q1 -54 21 -99t55 -70q53 -37 106 -37q68 0 115 52l19 -19q-30 -40 -81.5 -64t-105.5 -24q-95 0 -161 63.5t-66 174.5q0 104 70 178q32 35 77 56t90 21q31 0 59 -10t56.5 -32.5t46 -67.5t19.5 -108h-320zM140 301l223 5q-21 144 -94 144q-45 0 -81 -42
t-48 -107zM113 537l-20 15l126 174h62l125 -174l-21 -15l-136 101z" />
    <glyph glyph-name="edieresis" unicode="&#xeb;" horiz-adv-x="499" 
d="M136 263v-14q1 -54 21 -99t55 -70q53 -37 106 -37q68 0 115 52l19 -19q-30 -40 -81.5 -64t-105.5 -24q-95 0 -161 63.5t-66 174.5q0 104 70 178q32 35 77 56t90 21q31 0 59 -10t56.5 -32.5t46 -67.5t19.5 -108h-320zM140 301l223 5q-21 144 -94 144q-45 0 -81 -42
t-48 -107zM340 552q-24 0 -41.5 19t-17.5 45t17.5 44.5t41.5 18.5q23 0 41 -19t18 -44q0 -26 -18 -45t-41 -19zM160 552q-23 0 -41 19.5t-18 44.5t18 44t41 19t41 -19t18 -44t-18 -44.5t-41 -19.5z" />
    <glyph glyph-name="igrave" unicode="&#xec;" horiz-adv-x="319" 
d="M32 0v38h91v371l-91 10v50h184v-431h84v-38h-268zM231 537l-239 87l105 67l147 -134z" />
    <glyph glyph-name="iacute" unicode="&#xed;" horiz-adv-x="319" 
d="M32 0v38h91v371l-91 10v50h184v-431h84v-38h-268zM72 537l-12 20l147 134l105 -67z" />
    <glyph glyph-name="icircumflex" unicode="&#xee;" horiz-adv-x="319" 
d="M32 0v38h91v371l-91 10v50h184v-431h84v-38h-268zM23 537l-20 15l126 174h62l125 -174l-21 -15l-136 101z" />
    <glyph glyph-name="idieresis" unicode="&#xef;" horiz-adv-x="319" 
d="M32 0v38h91v371l-91 10v50h184v-431h84v-38h-268zM249 552q-24 0 -41.5 19t-17.5 45t17.5 44.5t41.5 18.5q23 0 41 -19t18 -44q0 -26 -18 -45t-41 -19zM69 552q-23 0 -41 19.5t-18 44.5t18 44t41 19t41 -19t18 -44t-18 -44.5t-41 -19.5z" />
    <glyph glyph-name="eth" unicode="&#xf0;" horiz-adv-x="579" 
d="M283 -12q-111 0 -178 64.5t-67 179.5q0 108 67.5 178.5t162.5 70.5q88 0 163 -50q-12 81 -46 162l-103 -44l-19 46l103 38q-37 71 -81 115l24 21q59 -50 105 -115l115 54l21 -47l-108 -43q98 -144 98 -299q0 -160 -70.5 -245.5t-186.5 -85.5zM298 22q51 0 84.5 46
t45.5 108t12 136q0 42 -4 82q-72 36 -135 36q-75 0 -119 -43t-44 -125q0 -102 44 -171t116 -69z" />
    <glyph glyph-name="ntilde" unicode="&#xf1;" horiz-adv-x="600" 
d="M32 0v40h71v363l-71 16v50h140l11 -59q93 66 181 66q73 0 109.5 -34.5t36.5 -117.5v-284h71v-40h-230v40h66v270q0 53 -36.5 80t-97.5 27q-15 0 -44 -11t-43 -20v-346h66v-40h-230zM137 538l-19 15q18 38 56 81t74 57l115 -69q43 11 100 58l20 -16q-17 -34 -56.5 -73.5
t-74.5 -51.5l-114 67q-40 -18 -101 -68z" />
    <glyph glyph-name="ograve" unicode="&#xf2;" horiz-adv-x="566" 
d="M272 -12q-97 0 -165.5 68.5t-68.5 175.5q0 109 73.5 179t183.5 70q96 0 165 -69t69 -176q0 -109 -73.5 -178.5t-183.5 -69.5zM291 24q62 0 98.5 59t36.5 149t-41 150.5t-110 60.5q-62 0 -98.5 -58.5t-36.5 -148.5t41 -151t110 -61zM369 537l-239 87l105 67l147 -134z" />
    <glyph glyph-name="oacute" unicode="&#xf3;" horiz-adv-x="566" 
d="M272 -12q-97 0 -165.5 68.5t-68.5 175.5q0 109 73.5 179t183.5 70q96 0 165 -69t69 -176q0 -109 -73.5 -178.5t-183.5 -69.5zM291 24q62 0 98.5 59t36.5 149t-41 150.5t-110 60.5q-62 0 -98.5 -58.5t-36.5 -148.5t41 -151t110 -61zM196 537l-12 20l147 134l105 -67z" />
    <glyph glyph-name="ocircumflex" unicode="&#xf4;" horiz-adv-x="566" 
d="M272 -12q-97 0 -165.5 68.5t-68.5 175.5q0 109 73.5 179t183.5 70q96 0 165 -69t69 -176q0 -109 -73.5 -178.5t-183.5 -69.5zM291 24q62 0 98.5 59t36.5 149t-41 150.5t-110 60.5q-62 0 -98.5 -58.5t-36.5 -148.5t41 -151t110 -61zM146 537l-20 15l126 174h62l125 -174
l-21 -15l-136 101z" />
    <glyph glyph-name="otilde" unicode="&#xf5;" horiz-adv-x="566" 
d="M272 -12q-97 0 -165.5 68.5t-68.5 175.5q0 109 73.5 179t183.5 70q96 0 165 -69t69 -176q0 -109 -73.5 -178.5t-183.5 -69.5zM291 24q62 0 98.5 59t36.5 149t-41 150.5t-110 60.5q-62 0 -98.5 -58.5t-36.5 -148.5t41 -151t110 -61zM119 538l-19 15q18 38 56 81t74 57
l115 -69q43 11 100 58l20 -16q-17 -34 -56.5 -73.5t-74.5 -51.5l-114 67q-40 -18 -101 -68z" />
    <glyph glyph-name="odieresis" unicode="&#xf6;" horiz-adv-x="566" 
d="M272 -12q-97 0 -165.5 68.5t-68.5 175.5q0 109 73.5 179t183.5 70q96 0 165 -69t69 -176q0 -109 -73.5 -178.5t-183.5 -69.5zM291 24q62 0 98.5 59t36.5 149t-41 150.5t-110 60.5q-62 0 -98.5 -58.5t-36.5 -148.5t41 -151t110 -61zM373 552q-24 0 -41.5 19t-17.5 45
t17.5 44.5t41.5 18.5q23 0 41 -19t18 -44q0 -26 -18 -45t-41 -19zM193 552q-23 0 -41 19.5t-18 44.5t18 44t41 19t41 -19t18 -44t-18 -44.5t-41 -19.5z" />
    <glyph glyph-name="divide" unicode="&#xf7;" horiz-adv-x="545" 
d="M272 366q-24 0 -42 19.5t-18 45.5q0 27 17.5 46.5t42.5 19.5t43 -19.5t18 -46.5q0 -26 -18 -45.5t-43 -19.5zM81 237l5 63h378l-5 -63h-378zM272 40q-25 0 -42.5 19.5t-17.5 46.5q0 26 18 45.5t42 19.5q25 0 43 -19.5t18 -45.5q0 -27 -18 -46.5t-43 -19.5z" />
    <glyph glyph-name="oslash" unicode="&#xf8;" horiz-adv-x="566" 
d="M447 426q85 -72 85 -190q0 -109 -74 -178.5t-185 -69.5q-57 0 -112 29l-64 -96l-42 27l68 94q-85 72 -85 190q0 109 74 179t184 70q62 0 113 -30l54 80l41 -27zM171 107l99 137l104 155q-40 45 -97 45q-62 0 -100 -59t-38 -149q0 -74 32 -129zM399 359l-98 -136
l-106 -155q41 -43 97 -43q63 0 100.5 58.5t37.5 148.5q0 73 -31 127z" />
    <glyph glyph-name="ugrave" unicode="&#xf9;" horiz-adv-x="590" 
d="M431 -7l-17 65q-97 -65 -179 -65q-73 0 -109 34t-36 117v275h-71v50h165v-311q0 -53 36 -79.5t97 -26.5q31 0 86 30v337h-74v50h167v-417h75v-38zM381 537l-239 87l105 67l147 -134z" />
    <glyph glyph-name="uacute" unicode="&#xfa;" horiz-adv-x="590" 
d="M431 -7l-17 65q-97 -65 -179 -65q-73 0 -109 34t-36 117v275h-71v50h165v-311q0 -53 36 -79.5t97 -26.5q31 0 86 30v337h-74v50h167v-417h75v-38zM208 537l-12 20l147 134l105 -67z" />
    <glyph glyph-name="ucircumflex" unicode="&#xfb;" horiz-adv-x="590" 
d="M431 -7l-17 65q-97 -65 -179 -65q-73 0 -109 34t-36 117v275h-71v50h165v-311q0 -53 36 -79.5t97 -26.5q31 0 86 30v337h-74v50h167v-417h75v-38zM151 537l-20 15l126 174h62l125 -174l-21 -15l-136 101z" />
    <glyph glyph-name="udieresis" unicode="&#xfc;" horiz-adv-x="590" 
d="M431 -7l-17 65q-97 -65 -179 -65q-73 0 -109 34t-36 117v275h-71v50h165v-311q0 -53 36 -79.5t97 -26.5q31 0 86 30v337h-74v50h167v-417h75v-38zM365 552q-24 0 -41.5 19t-17.5 45t17.5 44.5t41.5 18.5q23 0 41 -19t18 -44q0 -26 -18 -45t-41 -19zM185 552
q-23 0 -41 19.5t-18 44.5t18 44t41 19t41 -19t18 -44t-18 -44.5t-41 -19.5z" />
    <glyph glyph-name="yacute" unicode="&#xfd;" horiz-adv-x="562" 
d="M276 -3l-202 422h-55v50h251v-48h-93l142 -319l122 319h-80v48h182v-50h-48l-194 -452q-40 -94 -83 -135.5t-96 -44.5q-18 7 -30 25t-10 35q6 48 103 48q29 0 45 -2zM217 537l-12 20l147 134l105 -67z" />
    <glyph glyph-name="thorn" unicode="&#xfe;" horiz-adv-x="565" 
d="M-3 -215v39h80v856h-70v50l169 13l-10 -328q93 61 174 61q78 0 130.5 -60t52.5 -168q0 -114 -82 -192q-65 -61 -151 -61q-59 0 -121 22l7 -193h91v-39h-270zM248 39q86 0 132 47t46 140q0 88 -48.5 141t-117.5 53q-27 0 -89 -34v-339q26 -8 77 -8z" />
    <glyph glyph-name="ydieresis" unicode="&#xff;" horiz-adv-x="562" 
d="M276 -3l-202 422h-55v50h251v-48h-93l142 -319l122 319h-80v48h182v-50h-48l-194 -452q-40 -94 -83 -135.5t-96 -44.5q-18 7 -30 25t-10 35q6 48 103 48q29 0 45 -2zM404 552q-24 0 -41.5 19t-17.5 45t17.5 44.5t41.5 18.5q23 0 41 -19t18 -44q0 -26 -18 -45t-41 -19z
M224 552q-23 0 -41 19.5t-18 44.5t18 44t41 19t41 -19t18 -44t-18 -44.5t-41 -19.5z" />
    <glyph glyph-name="dotlessi" unicode="&#x131;" horiz-adv-x="319" 
d="M32 0v38h91v371l-91 10v50h184v-431h84v-38h-268z" />
    <glyph glyph-name="Lslash" unicode="&#x141;" horiz-adv-x="564" 
d="M33 0v42h85l4 245l-85 -34l-17 53l103 34l-5 295h-85v49h295v-49h-104l-5 -259l127 49l18 -53l-145 -46l5 -287l226 10l13 164h50v-213h-480z" />
    <glyph glyph-name="lslash" unicode="&#x142;" horiz-adv-x="329" 
d="M36 0v37h83v262l-90 -39l-18 52l108 36v329l-80 7v53l179 6l-6 -277v-82l90 39l18 -52l-108 -36v-298h85v-37h-261z" />
    <glyph glyph-name="OE" unicode="&#x152;" horiz-adv-x="961" 
d="M412 0q-164 0 -267 85.5t-103 245.5q0 157 107 255t272 98h448v-169h-51l-23 117l-206 10l-6 -277l213 10v-61l-213 10l6 -285l230 10l23 130h51v-179h-481zM416 40h70l5 302l-5 299h-75q-120 0 -189 -79t-69 -212q0 -136 70 -223t193 -87z" />
    <glyph glyph-name="oe" unicode="&#x153;" horiz-adv-x="886" 
d="M473 94q-63 -106 -200 -106q-97 0 -166 68.5t-69 175.5q0 109 74 179t184 70q59 0 107.5 -29.5t75.5 -80.5q14 26 27 39q68 71 156 71q31 0 59 -10t56.5 -32.5t46 -67.5t19.5 -108h-321v-14q2 -54 22 -99t54 -70q53 -37 107 -37q68 0 115 52l19 -19q-30 -40 -81.5 -64
t-105.5 -24q-124 0 -179 106zM526 301l224 5q-22 140 -94 140q-46 0 -82.5 -39.5t-47.5 -105.5zM292 25q63 0 100.5 58.5t37.5 148.5t-42 151t-111 61q-62 0 -99.5 -59t-37.5 -149t41.5 -150.5t110.5 -60.5z" />
    <glyph glyph-name="Scaron" unicode="&#x160;" horiz-adv-x="600" 
d="M309 -7q-45 0 -84 12t-57 23.5t-42 30.5v-59h-56v215h43l36 -127q91 -47 159 -47q50 0 86 30t36 81q0 53 -35 86t-124 70q-51 21 -79 36t-55.5 37.5t-39 52.5t-11.5 72q0 77 59 131t142 54q85 0 157 -59v52h56v-199h-44l-35 119q-55 38 -132 38q-45 0 -76 -28t-31 -74
t32 -77.5t116 -65.5q52 -21 82.5 -37.5t59.5 -41t42 -56.5t13 -76q0 -89 -67.5 -141t-150.5 -52zM269 740l-125 174l20 15l136 -101l137 101l20 -15l-126 -174h-62z" />
    <glyph glyph-name="scaron" unicode="&#x161;" horiz-adv-x="476" 
d="M68 19v142h41l30 -110q40 -25 81 -25q56 0 85.5 22.5t29.5 58.5q0 31 -24.5 48t-93.5 40q-72 25 -107.5 56t-35.5 87q0 65 53 102.5t142 37.5q72 0 137 -19v-130h-39l-30 96q-38 23 -73 23q-52 0 -76 -23t-24 -56q0 -31 23.5 -48.5t93.5 -42.5q75 -25 109.5 -53.5
t34.5 -81.5q0 -75 -53.5 -111t-145.5 -36q-77 0 -158 23zM208 536l-125 174l20 15l136 -101l137 101l20 -15l-126 -174h-62z" />
    <glyph glyph-name="Ydieresis" unicode="&#x178;" horiz-adv-x="703" 
d="M195 0v42h104l4 272l-238 324h-57v46h274v-46h-97l191 -281l200 281h-97v46h216v-46h-50l-246 -322l5 -274h104v-42h-313zM472 756q-24 0 -41.5 19t-17.5 45t17.5 44.5t41.5 18.5q23 0 41 -19t18 -44q0 -26 -18 -45t-41 -19zM292 756q-23 0 -41 19.5t-18 44.5t18 44
t41 19t41 -19t18 -44t-18 -44.5t-41 -19.5z" />
    <glyph glyph-name="Zcaron" unicode="&#x17d;" horiz-adv-x="681" 
d="M38 0v34l455 607l-329 -12l-28 -159h-51v214h533v-35l-455 -610l392 13l26 152h50v-204h-593zM309 740l-125 174l20 15l136 -101l137 101l20 -15l-126 -174h-62z" />
    <glyph glyph-name="zcaron" unicode="&#x17e;" horiz-adv-x="483" 
d="M40 0v38l293 394l-207 -5l-26 -105h-41v147h374v-48l-286 -384l225 6l26 118h41v-161h-399zM211 536l-125 174l20 15l136 -101l137 101l20 -15l-126 -174h-62z" />
    <glyph glyph-name="florin" unicode="&#x192;" horiz-adv-x="492" 
d="M-105 -160q3 30 18 50.5t40 20.5t56.5 -15.5t56.5 -45.5q24 31 47 137l68 339l-91 -4l10 46l89 -4l20 84q27 113 94 163q25 20 65 32t77 12q53 0 95 -17q-8 -42 -22 -62t-41 -20q-41 0 -114 63q-11 -15 -26.5 -54t-23.5 -77l-26 -125l140 5l-9 -46l-138 4l-61 -300
q-23 -110 -86 -163q-52 -44 -142 -44q-60 0 -96 21z" />
    <glyph glyph-name="circumflex" unicode="&#x2c6;" horiz-adv-x="489" 
d="M108 537l-20 15l126 174h62l125 -174l-21 -15l-136 101z" />
    <glyph glyph-name="caron" unicode="&#x2c7;" horiz-adv-x="489" 
d="M214 536l-125 174l20 15l136 -101l137 101l20 -15l-126 -174h-62z" />
    <glyph glyph-name="breve" unicode="&#x2d8;" horiz-adv-x="483" 
d="M241 533q-31 0 -57 17t-45 48t-29 54.5t-22 57.5l22 13q3 -5 8 -12.5t20 -27t30 -34.5t35 -27.5t38 -12.5q28 0 61 28.5t52 56.5l19 29l22 -13q-12 -33 -22.5 -56.5t-29 -55t-45 -48.5t-57.5 -17z" />
    <glyph glyph-name="dotaccent" unicode="&#x2d9;" horiz-adv-x="501" 
d="M250 556q-29 0 -50 22t-21 53t21 53.5t50 22.5t50 -22.5t21 -53.5t-21 -53t-50 -22z" />
    <glyph glyph-name="ring" unicode="&#x2da;" horiz-adv-x="495" 
d="M252 530q-44 0 -76 27t-32 65t31.5 66.5t74.5 28.5q44 0 76.5 -27.5t32.5 -65.5t-31.5 -66t-75.5 -28zM197 622q1 -28 16.5 -47.5t38.5 -18.5t38.5 20t15.5 46q0 28 -16 49t-39 20t-38.5 -21t-15.5 -48z" />
    <glyph glyph-name="ogonek" unicode="&#x2db;" horiz-adv-x="492" 
d="M348 -209q-95 -2 -150 20.5t-55 65.5q0 35 33 71t81 59h35q-80 -60 -80 -107q0 -67 140 -79z" />
    <glyph glyph-name="tilde" unicode="&#x2dc;" horiz-adv-x="501" 
d="M87 538l-19 15q18 38 56 81t74 57l115 -69q43 11 100 58l20 -16q-17 -34 -56.5 -73.5t-74.5 -51.5l-114 67q-40 -18 -101 -68z" />
    <glyph glyph-name="hungarumlaut" unicode="&#x2dd;" horiz-adv-x="500" 
d="M256 538l-17 14l93 173l110 -26zM74 537l-17 15l93 173l104 -26z" />
    <glyph glyph-name="Delta" unicode="&#x394;" horiz-adv-x="602" 
d="M436 409l-75 10h-146v-379h66v-40h-249v40h91v379h-91v50h91v47q0 84 24.5 130t74.5 66q58 28 147 28q32 0 69.5 -7t49.5 -13q-9 -90 -59 -90q-35 0 -83 22t-79 51q-51 -42 -51 -140v-94h313v-430q0 -61 -17.5 -106.5t-52.5 -74t-70.5 -45.5t-87.5 -32q-14 15 -17 33.5
t5.5 35t32.5 27.5t59 11q23 0 45 -18q10 22 10 128v411z" />
    <glyph glyph-name="Delta" unicode="&#x2206;" horiz-adv-x="602" 
d="M436 409l-75 10h-146v-379h66v-40h-249v40h91v379h-91v50h91v47q0 84 24.5 130t74.5 66q58 28 147 28q32 0 69.5 -7t49.5 -13q-9 -90 -59 -90q-35 0 -83 22t-79 51q-51 -42 -51 -140v-94h313v-430q0 -61 -17.5 -106.5t-52.5 -74t-70.5 -45.5t-87.5 -32q-14 15 -17 33.5
t5.5 35t32.5 27.5t59 11q23 0 45 -18q10 22 10 128v411z" />
    <glyph glyph-name="Omega" unicode="&#x3a9;" 
d="M318 501v233l-191 -15v51l244 -10l-9 -259h181l-9 259l244 10v-51l-191 15v-233h263l-15 191h50l-10 -245l-288 10v-240l288 10l10 -246h-50l15 191h-263v-232l191 15v-51l-244 10l9 258h-182l10 -258l-244 -10v51l191 -15v232h-264l15 -191h-50l10 246l289 -10v240
l-289 -10l-10 245h50l-15 -191h264zM360 459l-4 -124l4 -120l97 -3l87 3l5 127l-4 117l-96 3z" />
    <glyph glyph-name="Omega" unicode="&#x2126;" 
d="M318 501v233l-191 -15v51l244 -10l-9 -259h181l-9 259l244 10v-51l-191 15v-233h263l-15 191h50l-10 -245l-288 10v-240l288 10l10 -246h-50l15 191h-263v-232l191 15v-51l-244 10l9 258h-182l10 -258l-244 -10v51l191 -15v232h-264l15 -191h-50l10 246l289 -10v240
l-289 -10l-10 245h50l-15 -191h264zM360 459l-4 -124l4 -120l97 -3l87 3l5 127l-4 117l-96 3z" />
    <glyph glyph-name="pi" unicode="&#x3c0;" horiz-adv-x="776" 
d="M388 -11q-147 0 -246.5 99.5t-99.5 252.5t99.5 252.5t246.5 99.5t246.5 -100t99.5 -252t-99.5 -252t-246.5 -100zM388 28q130 0 216 89t86 224t-86 224t-216 89t-216 -89t-86 -224t86 -224t216 -89zM237 130v33h46l3 180l-3 181h-46v31h162q85 0 124 -27.5t39 -88.5
q0 -60 -45.5 -94t-125.5 -34h-38l3 -148h61v-33h-180zM353 338h43q40 0 65.5 23t25.5 71q0 47 -25.5 71t-68.5 24h-37z" />
    <glyph glyph-name="endash" unicode="&#x2013;" horiz-adv-x="793" 
d="M83 259l5 64h622l-5 -64h-622z" />
    <glyph glyph-name="emdash" unicode="&#x2014;" horiz-adv-x="1093" 
d="M83 259l5 64h922l-5 -64h-922z" />
    <glyph glyph-name="quoteleft" unicode="&#x2018;" horiz-adv-x="300" 
d="M137 408q-33 0 -56.5 28t-23.5 71q0 52 52.5 108t105.5 88l20 -25l-119 -118q87 -43 87 -89q0 -28 -19.5 -45.5t-46.5 -17.5z" />
    <glyph glyph-name="quoteright" unicode="&#x2019;" horiz-adv-x="300" 
d="M85 404l-20 25l118 118q-86 42 -86 89q0 28 19.5 45.5t46.5 17.5q33 0 56.5 -28t23.5 -71q0 -52 -52.5 -108t-105.5 -88z" />
    <glyph glyph-name="quotesinglbase" unicode="&#x201a;" horiz-adv-x="300" 
d="M85 -151l-20 25l118 118q-86 42 -86 89q0 28 19.5 45t46.5 17q33 0 56.5 -27.5t23.5 -70.5q0 -52 -52.5 -108t-105.5 -88z" />
    <glyph glyph-name="quotedblleft" unicode="&#x201c;" horiz-adv-x="498" 
d="M335 408q-32 0 -55 27.5t-23 68.5q0 52 52.5 110.5t104.5 88.5l19 -26l-118 -120q84 -42 84 -87q0 -28 -18.5 -45t-45.5 -17zM136 408q-33 0 -56 27.5t-23 68.5q0 52 52.5 110t104.5 89l20 -26l-119 -120q85 -42 85 -87q0 -28 -18.5 -45t-45.5 -17z" />
    <glyph glyph-name="quotedblright" unicode="&#x201d;" horiz-adv-x="498" 
d="M284 404l-19 25l118 121q-85 42 -85 87q0 27 19 44.5t45 17.5q33 0 56 -27.5t23 -69.5q0 -52 -52.5 -109.5t-104.5 -88.5zM85 404l-20 25l118 121q-84 42 -84 87q0 28 19 45t45 17q32 0 55 -27.5t23 -69.5q0 -52 -52 -109.5t-104 -88.5z" />
    <glyph glyph-name="quotedblbase" unicode="&#x201e;" horiz-adv-x="498" 
d="M284 -151l-19 25l118 121q-85 41 -85 87q0 27 19 44t45 17q33 0 56 -27t23 -69q0 -52 -52.5 -109.5t-104.5 -88.5zM85 -151l-20 25l118 121q-84 40 -84 87q0 28 18.5 44.5t45.5 16.5q32 0 55 -27t23 -69q0 -52 -52 -109.5t-104 -88.5z" />
    <glyph glyph-name="dagger" unicode="&#x2020;" horiz-adv-x="532" 
d="M301 488q5 0 20.5 -1.5t28 -2t18.5 -0.5q20 101 71 103q21 0 38.5 -18.5t20.5 -41.5q-20 -29 -77 -54.5t-124 -27.5l-3 -39l46 -37l-62 -501h-28l-60 501l47 37l-3 39q-67 2 -123.5 27.5t-76.5 54.5q3 23 20.5 41.5t38.5 18.5q51 -2 71 -103q6 0 18.5 0.5t27.5 2t20 1.5
l-20 249h112z" />
    <glyph glyph-name="daggerdbl" unicode="&#x2021;" horiz-adv-x="532" 
d="M301 488q5 0 20.5 -1.5t28 -2t18.5 -0.5q20 101 71 103q21 0 38.5 -18.5t20.5 -41.5q-20 -29 -77 -54.5t-124 -27.5l-3 -39l56 -103l-57 -102l3 -39q67 -3 123.5 -28t76.5 -54q-3 -23 -20.5 -41.5t-38.5 -18.5q-51 0 -71 102q-32 0 -66 -4l20 -248h-112l21 248
q-34 4 -67 4q-20 -102 -71 -102q-21 0 -38.5 18.5t-20.5 41.5q20 29 77 54t124 28l3 39l-56 102l57 103l-3 39q-67 2 -123.5 27.5t-76.5 54.5q3 23 20.5 41.5t38.5 18.5q51 -2 71 -103q6 0 18.5 0.5t27.5 2t20 1.5l-20 249h112z" />
    <glyph glyph-name="bullet" unicode="&#x2022;" horiz-adv-x="371" 
d="M186 240q-42 0 -74 33t-32 77t32 77t74 33t73.5 -33t31.5 -77t-31.5 -77t-73.5 -33z" />
    <glyph glyph-name="ellipsis" unicode="&#x2026;" horiz-adv-x="834" 
d="M695 -4q-27 0 -47.5 21.5t-20.5 50.5t20.5 50.5t47.5 21.5t47.5 -21.5t20.5 -50.5t-20.5 -50.5t-47.5 -21.5zM417 -4q-27 0 -47.5 21.5t-20.5 50.5t20.5 50.5t47.5 21.5t47.5 -21.5t20.5 -50.5t-20.5 -50.5t-47.5 -21.5zM139 -4q-28 0 -48 21.5t-20 50.5t20 50.5t48 21.5
q27 0 47.5 -21.5t20.5 -50.5t-20.5 -50.5t-47.5 -21.5z" />
    <glyph glyph-name="perthousand" unicode="&#x2030;" horiz-adv-x="1466" 
d="M259 264q-86 0 -144 54t-58 140t62 142t148 56q85 0 143 -54t58 -140t-61 -142t-148 -56zM345 -12l-41 23l185 311l186 334l41 -23l-196 -334zM1201 -12q-86 0 -145 54t-59 140t62 142t149 56q85 0 143 -54t58 -140t-61 -142t-147 -56zM752 -12q-86 0 -144.5 54.5
t-58.5 139.5q0 86 62 142t149 56q85 0 143 -54t58 -140t-61.5 -142t-147.5 -56zM265 294q48 0 76 46t28 118t-30 120t-79 48q-48 0 -76 -46t-28 -118t30 -120t79 -48zM1206 18q48 0 75.5 46t27.5 118t-29.5 120t-78.5 48q-48 0 -76 -46t-28 -118t30 -120t79 -48zM757 18
q48 0 76 46t28 118t-29.5 120t-78.5 48q-48 0 -76 -46t-28 -118t29.5 -120t78.5 -48z" />
    <glyph glyph-name="guilsinglleft" unicode="&#x2039;" horiz-adv-x="386" 
d="M270 16l-189 201v39l189 195l22 -14l-102 -202l102 -205z" />
    <glyph glyph-name="guilsinglright" unicode="&#x203a;" horiz-adv-x="386" 
d="M116 16l-22 14l102 202l-102 205l22 14l189 -201v-39z" />
    <glyph glyph-name="fraction" unicode="&#x2044;" horiz-adv-x="456" 
d="M92 -62l-47 27l168 302l150 274l48 -27l-162 -270z" />
    <glyph glyph-name="fraction" unicode="&#x2215;" horiz-adv-x="456" 
d="M92 -62l-47 27l168 302l150 274l48 -27l-162 -270z" />
    <glyph glyph-name="Euro" unicode="&#x20ac;" horiz-adv-x="647" 
d="M154 281l-102 -3v51l114 -3q23 60 69 103q81 78 189 78q101 0 154 -40q-5 -79 -55 -79q-27 0 -62 25.5t-65 68.5q-43 -16 -81 -58.5t-53 -100.5l205 6v-51l-211 6q-1 -6 -1 -19q0 -31 7 -70l205 6v-51l-191 5q19 -41 48 -64q52 -44 122 -44q69 0 119 53l20 -20
q-31 -43 -83.5 -68t-108.5 -25q-86 0 -149 42.5t-85 123.5l-107 -3v51l99 -3q0 6 -0.5 18t-0.5 19q0 26 4 46z" />
    <glyph glyph-name="trademark" unicode="&#x2122;" horiz-adv-x="1030" 
d="M118 301v31h62l2 160l-2 165l-102 -6l-8 -106h-36v139h364v-139h-36l-9 106l-101 6l-3 -165l3 -160h62v-31h-196zM673 298l-147 349l-2 -315h51v-31h-138v31h48l3 320h-51v32h147l125 -298l125 298h141v-32h-50l-1 -320h52v-31h-175v31h54l3 314l-151 -348h-34z" />
    <glyph glyph-name="partialdiff" unicode="&#x2202;" 
d="M318 501v233l-191 -15v51l244 -10l-9 -259h181l-9 259l244 10v-51l-191 15v-233h263l-15 191h50l-10 -245l-288 10v-240l288 10l10 -246h-50l15 191h-263v-232l191 15v-51l-244 10l9 258h-182l10 -258l-244 -10v51l191 -15v232h-264l15 -191h-50l10 246l289 -10v240
l-289 -10l-10 245h50l-15 -191h264zM360 459l-4 -124l4 -120l97 -3l87 3l5 127l-4 117l-96 3z" />
    <glyph glyph-name="product" unicode="&#x220f;" 
d="M318 501v233l-191 -15v51l244 -10l-9 -259h181l-9 259l244 10v-51l-191 15v-233h263l-15 191h50l-10 -245l-288 10v-240l288 10l10 -246h-50l15 191h-263v-232l191 15v-51l-244 10l9 258h-182l10 -258l-244 -10v51l191 -15v232h-264l15 -191h-50l10 246l289 -10v240
l-289 -10l-10 245h50l-15 -191h264zM360 459l-4 -124l4 -120l97 -3l87 3l5 127l-4 117l-96 3z" />
    <glyph glyph-name="summation" unicode="&#x2211;" 
d="M318 501v233l-191 -15v51l244 -10l-9 -259h181l-9 259l244 10v-51l-191 15v-233h263l-15 191h50l-10 -245l-288 10v-240l288 10l10 -246h-50l15 191h-263v-232l191 15v-51l-244 10l9 258h-182l10 -258l-244 -10v51l191 -15v232h-264l15 -191h-50l10 246l289 -10v240
l-289 -10l-10 245h50l-15 -191h264zM360 459l-4 -124l4 -120l97 -3l87 3l5 127l-4 117l-96 3z" />
    <glyph glyph-name="minus" unicode="&#x2212;" horiz-adv-x="592" 
d="M105 237l5 63h377l-5 -63h-377z" />
    <glyph glyph-name="radical" unicode="&#x221a;" horiz-adv-x="609" 
d="M317 -14l-292 181l94 114l165 -216l103 253l149 422l50 -20l-160 -420z" />
    <glyph glyph-name="infinity" unicode="&#x221e;" horiz-adv-x="946" 
d="M32 0v40h91v379h-91v50h91v25q0 49 11 87.5t29 62.5t42.5 39t49.5 21t53 6q60 0 107 -27q-4 -30 -19 -50.5t-32 -20.5q-25 0 -61 17.5t-65 43.5q-22 -51 -22 -140v-64h220v47q0 65 17 111t46 69.5t60.5 33.5t67.5 10q71 0 119 -24q-4 -39 -21 -59t-39 -20q-26 0 -61 18.5
t-65 47.5q-30 -41 -30 -140v-94h313v-429h84v-40h-243v40h66v369l-69 10h-152v-379h65v-40h-233v40h75v379h-221v-379h66v-40h-249z" />
    <glyph glyph-name="integral" unicode="&#x222b;" 
d="M318 501v233l-191 -15v51l244 -10l-9 -259h181l-9 259l244 10v-51l-191 15v-233h263l-15 191h50l-10 -245l-288 10v-240l288 10l10 -246h-50l15 191h-263v-232l191 15v-51l-244 10l9 258h-182l10 -258l-244 -10v51l191 -15v232h-264l15 -191h-50l10 246l289 -10v240
l-289 -10l-10 245h50l-15 -191h264zM360 459l-4 -124l4 -120l97 -3l87 3l5 127l-4 117l-96 3z" />
    <glyph glyph-name="approxequal" unicode="&#x2248;" 
d="M325 501v233l-191 -15v51l244 -10l-9 -259h181l-9 259l244 10v-51l-191 15v-233h263l-15 191h50l-10 -245l-288 10v-240l288 10l10 -246h-50l15 191h-263v-232l191 15v-51l-244 10l9 258h-182l10 -258l-244 -10v51l191 -15v232h-264l15 -191h-50l10 246l289 -10v240
l-289 -10l-10 245h50l-15 -191h264zM367 459l-4 -124l4 -120l97 -3l87 3l5 127l-4 117l-96 3z" />
    <glyph glyph-name="notequal" unicode="&#x2260;" horiz-adv-x="678" 
d="M123 494q0 49 11 87.5t29 62.5t42.5 39t49.5 21t53 6q59 0 106 -28q-3 -28 -20 -49t-33 -21q-23 0 -59 18t-64 43q-22 -51 -22 -140v-64h220v55q0 114 49.5 165t124.5 51q64 0 118 -28q-4 -32 -21 -53t-39 -21q-38 0 -119 64q-19 -44 -19 -139v-94h125v-50h-126v-379h117
v-40h-276v40h66v379h-221v-379h66v-40h-249v40h91v379h-91v50h91v25z" />
    <glyph glyph-name="lessequal" unicode="&#x2264;" 
d="M318 501v233l-191 -15v51l244 -10l-9 -259h181l-9 259l244 10v-51l-191 15v-233h263l-15 191h50l-10 -245l-288 10v-240l288 10l10 -246h-50l15 191h-263v-232l191 15v-51l-244 10l9 258h-182l10 -258l-244 -10v51l191 -15v232h-264l15 -191h-50l10 246l289 -10v240
l-289 -10l-10 245h50l-15 -191h264zM360 459l-4 -124l4 -120l97 -3l87 3l5 127l-4 117l-96 3z" />
    <glyph glyph-name="greaterequal" unicode="&#x2265;" 
d="M318 501v233l-191 -15v51l244 -10l-9 -259h181l-9 259l244 10v-51l-191 15v-233h263l-15 191h50l-10 -245l-288 10v-240l288 10l10 -246h-50l15 191h-263v-232l191 15v-51l-244 10l9 258h-182l10 -258l-244 -10v51l191 -15v232h-264l15 -191h-50l10 246l289 -10v240
l-289 -10l-10 245h50l-15 -191h264zM360 459l-4 -124l4 -120l97 -3l87 3l5 127l-4 117l-96 3z" />
    <glyph glyph-name="lozenge" unicode="&#x25ca;" horiz-adv-x="747" 
d="M554 -8q-49 0 -73 26.5t-24 86.5v314h-242v-379h103v-40h-286v40h91v379h-91v50h91v55q0 114 50 165t124 51q65 0 119 -28q-5 -32 -22 -53t-39 -21q-44 0 -118 64q-21 -48 -21 -139v-94h234l36 147h62v-147h130v-48h-127v-315q0 -28 15 -40t55 -13q17 0 83 6l8 -28
q-71 -39 -158 -39z" />
    <glyph glyph-name="apple" unicode="&#xf8ff;" 
d="M325 501v233l-191 -15v51l244 -10l-9 -259h181l-9 259l244 10v-51l-191 15v-233h263l-15 191h50l-10 -245l-288 10v-240l288 10l10 -246h-50l15 191h-263v-232l191 15v-51l-244 10l9 258h-182l10 -258l-244 -10v51l191 -15v232h-264l15 -191h-50l10 246l289 -10v240
l-289 -10l-10 245h50l-15 -191h264zM367 459l-4 -124l4 -120l97 -3l87 3l5 127l-4 117l-96 3z" />
    <glyph glyph-name="NUL" horiz-adv-x="0" 
 />
    <glyph glyph-name="nbspace" horiz-adv-x="142" 
 />
    <glyph glyph-name="f_t" horiz-adv-x="747" 
d="M554 -8q-49 0 -73 26.5t-24 86.5v314h-242v-379h103v-40h-286v40h91v379h-91v50h91v55q0 114 50 165t124 51q65 0 119 -28q-5 -32 -22 -53t-39 -21q-44 0 -118 64q-21 -48 -21 -139v-94h234l36 147h62v-147h130v-48h-127v-315q0 -28 15 -40t55 -13q17 0 83 6l8 -28
q-71 -39 -158 -39z" />
    <glyph glyph-name="multiply.lfprop" horiz-adv-x="599" 
d="M167 151l-41 48l122 122l-125 124l48 42l122 -122l124 125l41 -48l-121 -121l124 -124l-48 -42l-120 122z" />
    <glyph glyph-name="numbersign.lfprop" horiz-adv-x="649" 
d="M382 -34l-59 10l47 242l-65 11l-66 8l-42 -269l-59 9l51 266l-126 16l8 55l128 -20l3 18l17 108l-130 17l8 55l130 -21l41 245l57 -9l-46 -244l58 -9l71 -9l45 270l57 -9l-50 -266l126 -15l-8 -56l-127 19l-17 -93l-6 -33l133 -15l-8 -56l-133 20zM379 267l7 36l14 92
l-70 12l-59 8l-21 -110l-3 -19l65 -10z" />
    <glyph glyph-name="dollar.lfprop" horiz-adv-x="562" 
d="M250 -117l1 111q-75 7 -131.5 49.5t-70.5 98.5q10 13 24 21t30.5 7.5t30.5 -11t25 -38.5t14 -71q32 -11 78 -15l3 267q-35 17 -52.5 26.5t-46.5 29.5t-43.5 38.5t-26 47t-11.5 62.5q0 76 52.5 128t124.5 57l-1 111h51l-2 -113q65 -7 109.5 -35.5t62.5 -71.5
q-6 -12 -17.5 -22t-27 -13t-30.5 2.5t-29.5 29.5t-22.5 65q-14 3 -45 3l-4 -248q37 -18 55 -28t48.5 -31t45.5 -40t27 -49t12 -65q0 -80 -54 -132t-129 -59l1 -112h-51zM254 420l-2 227q-45 -4 -69.5 -33t-24.5 -75q0 -39 24.5 -66t71.5 -53zM299 38q47 9 73.5 39.5
t26.5 74.5t-26.5 73.5t-76.5 56.5z" />
    <glyph glyph-name="percent.lfprop" horiz-adv-x="1004" 
d="M252 304q-85 0 -142 54t-57 140q0 85 65 141.5t152 56.5q85 0 140 -54t55 -140t-63 -142t-150 -56zM274 11l185 313l211 375l45 -25l-219 -376l-177 -313zM724 -12q-85 0 -142 54t-57 140q0 85 65 141.5t152 56.5q85 0 140 -54t55 -140t-63.5 -142t-149.5 -56zM261 335
q49 0 76.5 45.5t27.5 117.5t-29.5 119.5t-79.5 47.5q-49 0 -76 -45.5t-27 -117.5t29.5 -119.5t78.5 -47.5zM733 19q49 0 76.5 45.5t27.5 117.5t-29.5 119.5t-79.5 47.5q-49 0 -76.5 -45.5t-27.5 -117.5t29.5 -119.5t79.5 -47.5z" />
    <glyph glyph-name="plus.lfprop" horiz-adv-x="599" 
d="M329 123l-73 5l4 162h-159l5 63h154l-4 165l73 -5l-4 -160h159l-5 -63h-154z" />
    <glyph glyph-name="zero.lfprop" horiz-adv-x="651" 
d="M317 -12q-108 0 -180 98.5t-72 255.5q0 145 80.5 249.5t187.5 104.5q108 0 180 -99t72 -256q0 -145 -82 -249t-186 -104zM328 29q73 0 112 84.5t39 223.5q0 133 -44.5 224.5t-112.5 91.5q-72 0 -111.5 -84t-39.5 -222q0 -133 44.5 -225.5t112.5 -92.5z" />
    <glyph glyph-name="one.lfprop" horiz-adv-x="421" 
d="M52 0v39h126v579h-126v48l228 30v-657h88v-39h-316z" />
    <glyph glyph-name="two.lfprop" horiz-adv-x="570" 
d="M45 0v33q185 204 242 291.5t54 178.5q-1 57 -41 88t-107 31q-62 0 -131 -27l-14 30q93 71 214 71q76 0 132 -43.5t56 -135.5q0 -90 -67.5 -184t-245.5 -260l1 -8l297 11l15 115h45v-191h-450z" />
    <glyph glyph-name="three.lfprop" horiz-adv-x="550" 
d="M42 2q-11 29 1 54t42 25q34 0 87 -13t99 -36q49 35 79 77.5t30 103.5q0 54 -55 98t-157 70l-5 23q142 64 142 137q0 35 -30 60t-86 25q-64 0 -122 -30l-15 30q40 32 96 50.5t111 18.5q70 0 107.5 -30t37.5 -81q0 -44 -31 -85.5t-83 -66.5q182 -59 182 -184
q0 -114 -92.5 -187t-219.5 -73q-70 0 -118 14z" />
    <glyph glyph-name="four.lfprop" horiz-adv-x="612" 
d="M352 0l5 153h-320v52l345 483l71 -3l-5 -461h102v-71h-101l4 -153h-101zM112 224h246l-4 346z" />
    <glyph glyph-name="five.lfprop" horiz-adv-x="552" 
d="M42 1q-11 30 1 55t42 25q33 0 86.5 -13t99.5 -36q105 75 105 188q0 146 -296 213l43 251h261l10 58h52v-134h-281l-21 -85q158 -38 241 -105t83 -159q0 -118 -89 -194.5t-216 -76.5q-78 0 -121 13z" />
    <glyph glyph-name="six.lfprop" horiz-adv-x="620" 
d="M200 409q81 30 138 30q98 0 156 -63.5t58 -160.5q0 -81 -64 -150q-72 -77 -197 -77q-102 0 -170 69t-65 185q2 84 41 165.5t94.5 141t103 98t84.5 58.5l19 -20q-143 -153 -198 -276zM186 374q-25 -73 -24 -143q3 -96 47 -152t105 -56q63 0 100.5 50.5t36.5 126.5
q-2 79 -49 127.5t-140 52.5q-12 1 -76 -6z" />
    <glyph glyph-name="seven.lfprop" horiz-adv-x="554" 
d="M233 -18l-111 52l313 582l-310 -5l-10 -107h-60v180h448v-35z" />
    <glyph glyph-name="eight.lfprop" horiz-adv-x="590" 
d="M200 349q-110 57 -110 166q0 75 61.5 128t156.5 53q88 0 139.5 -46t51.5 -113q0 -50 -33 -92t-88 -71q73 -40 105.5 -82.5t32.5 -101.5q0 -79 -64 -140.5t-176 -61.5q-100 0 -157.5 50t-57.5 124q0 115 139 187zM348 388q73 77 73 147q0 51 -35.5 88t-95.5 37
q-51 0 -80.5 -30.5t-29.5 -75.5q0 -50 42 -90t126 -76zM231 333q-44 -39 -66.5 -82.5t-22.5 -78.5q0 -63 43 -105t107 -42q55 0 93.5 37t38.5 90q0 52 -45.5 94t-147.5 87z" />
    <glyph glyph-name="nine.lfprop" horiz-adv-x="620" 
d="M405 273q-78 -28 -134 -28q-99 0 -158.5 63.5t-59.5 160.5q0 82 65 150q72 77 199 77q101 0 168 -69t64 -185q-2 -68 -28.5 -135.5t-63.5 -118.5t-82.5 -96t-81 -71.5t-63.5 -41.5l-20 20q145 157 195 274zM420 311q26 73 23 142q-2 96 -45 152t-104 56q-63 0 -102 -50.5
t-37 -126.5q1 -78 49 -126.5t140 -52.5q13 -1 76 6z" />
    <glyph glyph-name="cent.lfprop" horiz-adv-x="572" 
d="M286 -12q-101 6 -165.5 72t-60.5 182q3 111 85 188q61 58 142 73l-2 112h53l-1 -107q101 -1 154 -41q-3 -40 -18 -65t-40 -25q-23 0 -51 22.5t-46 58.5l-2 -211l2 -197q9 -3 20 -3q68 0 120 54l20 -20q-56 -76 -159 -91l1 -117h-53zM287 473q-49 -27 -84 -82.5
t-36 -123.5q-2 -117 69 -175q24 -20 51 -30l3 185z" />
    <glyph glyph-name="sterling.lfprop" horiz-adv-x="601" 
d="M52 1v40q140 98 140 177q0 29 -19 103l-122 -2v49l109 -3q-40 122 -40 158q0 78 90 134q59 37 142 37q41 0 76 -13t52 -27q-5 -30 -21 -48t-38 -18q-23 0 -55.5 18t-60.5 61q-35 -15 -60 -48t-25 -68q0 -17 6.5 -44t21 -75.5t19.5 -67.5l160 4v-49l-148 1q13 -49 13 -84
q0 -60 -47 -110t-123 -77v-8l348 34l15 116h46v-190h-479z" />
    <glyph glyph-name="divide.lfprop" horiz-adv-x="545" 
d="M272 419q-24 0 -42 19.5t-18 45.5q0 27 17.5 46.5t42.5 19.5t43 -19.5t18 -46.5q0 -26 -18 -45.5t-43 -19.5zM81 290l5 63h378l-5 -63h-378zM272 93q-25 0 -42.5 19.5t-17.5 46.5q0 26 18 45.5t42 19.5q25 0 43 -19.5t18 -45.5q0 -27 -18 -46.5t-43 -19.5z" />
    <glyph glyph-name="currency.lfprop" horiz-adv-x="624" 
d="M136 376l-104 -2v50l110 -4q23 119 101 198t173 79q43 0 82.5 -10.5t58.5 -25.5q-6 -71 -52 -71q-26 0 -60.5 21.5t-61.5 60.5q-117 -66 -134 -253l198 5v-50l-200 3q-1 -9 -1 -30q0 -26 3 -50l198 5v-50l-193 3q18 -95 67.5 -150.5t113.5 -55.5q62 0 114 47l19 -20
q-30 -40 -79.5 -64t-103.5 -24q-93 0 -159 71.5t-85 195.5l-109 -3v50l105 -4q-2 28 -2 44q0 23 1 34z" />
    <glyph glyph-name="perthousand.lfprop" horiz-adv-x="1450" 
d="M252 304q-85 0 -142 54t-57 140q0 85 65 141.5t152 56.5q85 0 140 -54t55 -140t-63 -142t-150 -56zM274 11l185 313l211 375l45 -25l-219 -376l-177 -313zM1170 -12q-85 0 -142 54t-57 140q0 85 65 141.5t152 56.5q85 0 140 -54t55 -140t-63.5 -142t-149.5 -56zM724 -12
q-85 0 -142 54t-57 140q0 85 65 141.5t152 56.5q85 0 140 -54t55 -140t-63.5 -142t-149.5 -56zM261 335q49 0 76.5 45.5t27.5 117.5t-29.5 119.5t-79.5 47.5q-49 0 -76 -45.5t-27 -117.5t29.5 -119.5t78.5 -47.5zM1179 19q49 0 76.5 45.5t27.5 117.5t-29.5 119.5t-79.5 47.5
q-49 0 -76.5 -45.5t-27.5 -117.5t29.5 -119.5t79.5 -47.5zM733 19q49 0 76.5 45.5t27.5 117.5t-29.5 119.5t-79.5 47.5q-49 0 -76.5 -45.5t-27.5 -117.5t29.5 -119.5t79.5 -47.5z" />
    <glyph glyph-name="Euro.lfprop" horiz-adv-x="624" 
d="M136 376l-104 -2v50l110 -4q23 119 101 198t173 79q43 0 82.5 -10.5t58.5 -25.5q-6 -71 -52 -71q-26 0 -60.5 21.5t-61.5 60.5q-117 -66 -134 -253l198 5v-50l-200 3q-1 -9 -1 -30q0 -26 3 -50l198 5v-50l-193 3q18 -95 67.5 -150.5t113.5 -55.5q62 0 114 47l19 -20
q-30 -40 -79.5 -64t-103.5 -24q-93 0 -159 71.5t-85 195.5l-109 -3v50l105 -4q-2 28 -2 44q0 23 1 34z" />
    </font>
</defs>
</svg>
